Jicaleta-Regular.ufo
<glyph name="exclam" format="2">
	<advance width="274"/>
	<unicode hex="0021"/>
	<outline>
		<contour>
			<point x="83" y="743" type="curve"/>
			<point x="114" y="257" type="line"/>
			<point x="181" y="257" type="line"/>
			<point x="218" y="616" type="line" smooth="yes"/>
			<point x="229" y="719"/>
			<point x="216" y="748"/>
			<point x="154" y="751" type="curve" smooth="yes"/>
			<point x="136" y="752"/>
			<point x="112" y="749"/>
		</contour>
		<contour>
			<point x="151" y="0" type="curve" smooth="yes"/>
			<point x="198" y="0"/>
			<point x="219" y="20"/>
			<point x="219" y="69" type="curve" smooth="yes"/>
			<point x="219" y="119"/>
			<point x="198" y="139"/>
			<point x="151" y="139" type="curve" smooth="yes"/>
			<point x="103" y="139"/>
			<point x="82" y="119"/>
			<point x="82" y="69" type="curve" smooth="yes"/>
			<point x="82" y="20"/>
			<point x="103" y="0"/>
		</contour>
	</outline>
</glyph>
<glyph name="ampersand" format="2">
	<advance width="797"/>
	<unicode hex="0026"/>
	<outline>
		<contour>
			<point x="533" y="77" type="curve" smooth="yes"/>
			<point x="584" y="26"/>
			<point x="649" y="-15"/>
			<point x="686" y="-15" type="curve" smooth="yes"/>
			<point x="732" y="-15"/>
			<point x="786" y="39"/>
			<point x="816" y="107" type="curve"/>
			<point x="785" y="129" type="line"/>
			<point x="770" y="112"/>
			<point x="751" y="92"/>
			<point x="732" y="82" type="curve"/>
			<point x="695" y="82"/>
			<point x="634" y="143"/>
			<point x="595" y="178" type="curve" smooth="yes"/>
			<point x="339" y="407"/>
			<point x="261" y="482"/>
			<point x="261" y="576" type="curve" smooth="yes"/>
			<point x="261" y="605"/>
			<point x="265" y="644"/>
			<point x="289" y="685" type="curve"/>
			<point x="245" y="633" type="line"/>
			<point x="287" y="656"/>
			<point x="330" y="666"/>
			<point x="376" y="666" type="curve" smooth="yes"/>
			<point x="451" y="666"/>
			<point x="503" y="633"/>
			<point x="521" y="546" type="curve"/>
			<point x="577" y="546" type="line"/>
			<point x="577" y="714" type="line"/>
			<point x="521" y="736"/>
			<point x="461" y="748"/>
			<point x="404" y="748" type="curve" smooth="yes"/>
			<point x="268" y="748"/>
			<point x="151" y="682"/>
			<point x="151" y="544" type="curve" smooth="yes"/>
			<point x="151" y="493"/>
			<point x="172" y="439"/>
			<point x="217" y="394" type="curve"/>
			<point x="323" y="262"/>
			<point x="411" y="199"/>
		</contour>
		<contour>
			<point x="542" y="191" type="curve"/>
			<point x="594" y="139" type="line"/>
			<point x="638" y="206"/>
			<point x="652" y="285"/>
			<point x="652" y="380" type="curve"/>
			<point x="590" y="380" type="line"/>
			<point x="588" y="297"/>
			<point x="572" y="241"/>
		</contour>
		<contour>
			<point x="552" y="90" type="curve"/>
			<point x="486" y="125" type="line"/>
			<point x="439" y="90"/>
			<point x="386" y="70"/>
			<point x="321" y="70" type="curve" smooth="yes"/>
			<point x="203" y="70"/>
			<point x="153" y="148"/>
			<point x="153" y="231" type="curve" smooth="yes"/>
			<point x="153" y="291"/>
			<point x="177" y="353"/>
			<point x="226" y="395" type="curve"/>
			<point x="200" y="443" type="line"/>
			<point x="125" y="405"/>
			<point x="43" y="336"/>
			<point x="43" y="197" type="curve" smooth="yes"/>
			<point x="43" y="120"/>
			<point x="101" y="-14"/>
			<point x="298" y="-14" type="curve" smooth="yes"/>
			<point x="416" y="-14"/>
			<point x="497" y="27"/>
		</contour>
	</outline>
</glyph>
<glyph name="parenleft" format="2">
	<advance width="250"/>
	<unicode hex="0028"/>
	<outline>
		<contour>
			<point x="179" y="-172" type="curve"/>
			<point x="227" y="-146" type="line"/>
			<point x="166" y="-39"/>
			<point x="126" y="119"/>
			<point x="126" y="314" type="curve" smooth="yes"/>
			<point x="126" y="510"/>
			<point x="166" y="672"/>
			<point x="227" y="779" type="curve"/>
			<point x="179" y="805" type="line"/>
			<point x="89" y="685"/>
			<point x="20" y="514"/>
			<point x="20" y="316" type="curve" smooth="yes"/>
			<point x="20" y="118"/>
			<point x="89" y="-52"/>
		</contour>
	</outline>
</glyph>
<glyph name="parenright" format="2">
	<advance width="256"/>
	<unicode hex="0029"/>
	<outline>
		<contour>
			<point x="12" y="-146" type="curve"/>
			<point x="60" y="-172" type="line"/>
			<point x="150" y="-52"/>
			<point x="219" y="117"/>
			<point x="219" y="315" type="curve" smooth="yes"/>
			<point x="219" y="513"/>
			<point x="150" y="685"/>
			<point x="60" y="805" type="curve"/>
			<point x="12" y="779" type="line"/>
			<point x="73" y="672"/>
			<point x="113" y="512"/>
			<point x="113" y="317" type="curve" smooth="yes"/>
			<point x="113" y="121"/>
			<point x="73" y="-39"/>
		</contour>
	</outline>
</glyph>
<glyph name="comma" format="2">
	<advance width="258"/>
	<unicode hex="002C"/>
	<outline>
		<contour>
			<point x="28" y="-146" type="curve"/>
			<point x="70" y="-173" type="line"/>
			<point x="155" y="-64"/>
			<point x="190" y="23"/>
			<point x="190" y="88" type="curve" smooth="yes"/>
			<point x="190" y="131"/>
			<point x="168" y="148"/>
			<point x="129" y="148" type="curve" smooth="yes"/>
			<point x="113" y="148"/>
			<point x="101" y="147"/>
			<point x="82" y="146" type="curve"/>
			<point x="82" y="92"/>
			<point x="80" y="-7"/>
		</contour>
	</outline>
</glyph>
<glyph name="hyphen" format="2">
	<advance width="270"/>
	<unicode hex="002D"/>
	<outline>
		<contour>
			<point x="5" y="251" type="curve"/>
			<point x="230" y="251" type="line" smooth="yes"/>
			<point x="256" y="251"/>
			<point x="265" y="272"/>
			<point x="265" y="325" type="curve"/>
			<point x="40" y="325" type="line" smooth="yes"/>
			<point x="14" y="325"/>
			<point x="5" y="298"/>
		</contour>
	</outline>
</glyph>
<glyph name="period" format="2">
	<advance width="205"/>
	<unicode hex="002E"/>
	<outline>
		<contour>
			<point x="103" y="1" type="curve" smooth="yes"/>
			<point x="152" y="1"/>
			<point x="174" y="22"/>
			<point x="174" y="73" type="curve" smooth="yes"/>
			<point x="174" y="126"/>
			<point x="152" y="147"/>
			<point x="103" y="147" type="curve" smooth="yes"/>
			<point x="53" y="147"/>
			<point x="31" y="126"/>
			<point x="31" y="73" type="curve" smooth="yes"/>
			<point x="31" y="22"/>
			<point x="53" y="1"/>
		</contour>
	</outline>
</glyph>
<glyph name="one" format="2">
	<advance width="490"/>
	<unicode hex="0031"/>
	<outline>
		<contour>
			<point x="55" y="0" type="line"/>
			<point x="438" y="0" type="line"/>
			<point x="438" y="57" type="line"/>
			<point x="408" y="57" type="line"/>
			<point x="341" y="57"/>
			<point x="314" y="74"/>
			<point x="314" y="130" type="curve" smooth="yes"/>
			<point x="315" y="370" type="line"/>
			<point x="319" y="512" type="line" smooth="yes"/>
			<point x="320" y="541"/>
			<point x="300" y="557"/>
			<point x="272" y="556" type="curve" smooth="yes"/>
			<point x="241" y="555"/>
			<point x="188" y="532"/>
			<point x="44" y="463" type="curve"/>
			<point x="60" y="420" type="line"/>
			<point x="244" y="457" type="line"/>
			<point x="211" y="509" type="line"/>
			<point x="211" y="59" type="line"/>
			<point x="55" y="59" type="line"/>
		</contour>
	</outline>
</glyph>
<glyph name="two" format="2">
	<advance width="560"/>
	<unicode hex="0032"/>
	<outline>
		<contour>
			<point x="69" y="88" type="curve"/>
			<point x="69" y="74" type="line"/>
			<point x="150" y="74" type="line"/>
			<point x="360" y="185"/>
			<point x="477" y="244"/>
			<point x="477" y="393" type="curve" smooth="yes"/>
			<point x="477" y="505"/>
			<point x="398" y="556"/>
			<point x="294" y="556" type="curve" smooth="yes"/>
			<point x="226" y="556"/>
			<point x="148" y="535"/>
			<point x="74" y="499" type="curve"/>
			<point x="75" y="338" type="line"/>
			<point x="129" y="338" type="line"/>
			<point x="154" y="466" type="line"/>
			<point x="187" y="477"/>
			<point x="226" y="485"/>
			<point x="262" y="485" type="curve" smooth="yes"/>
			<point x="344" y="485"/>
			<point x="373" y="444"/>
			<point x="373" y="371" type="curve" smooth="yes"/>
			<point x="373" y="266"/>
			<point x="278" y="209"/>
		</contour>
		<contour>
			<point x="69" y="0" type="line"/>
			<point x="521" y="0" type="line"/>
			<point x="521" y="107" type="line"/>
			<point x="69" y="81" type="line"/>
		</contour>
	</outline>
</glyph>
<glyph name="three" format="2">
	<advance width="580"/>
	<unicode hex="0033"/>
	<outline>
		<contour>
			<point x="227" y="-185" type="curve" smooth="yes"/>
			<point x="392" y="-185"/>
			<point x="522" y="-92"/>
			<point x="522" y="66" type="curve" smooth="yes"/>
			<point x="522" y="159"/>
			<point x="453" y="233"/>
			<point x="302" y="221" type="curve"/>
			<point x="300" y="199" type="line"/>
			<point x="437" y="239"/>
			<point x="487" y="324"/>
			<point x="487" y="396" type="curve" smooth="yes"/>
			<point x="487" y="457"/>
			<point x="451" y="556"/>
			<point x="301" y="556" type="curve" smooth="yes"/>
			<point x="204" y="556"/>
			<point x="117" y="523"/>
			<point x="74" y="499" type="curve"/>
			<point x="75" y="339" type="line"/>
			<point x="128" y="339" type="line"/>
			<point x="155" y="465" type="line"/>
			<point x="184" y="478"/>
			<point x="218" y="486"/>
			<point x="266" y="486" type="curve" smooth="yes"/>
			<point x="337" y="486"/>
			<point x="381" y="449"/>
			<point x="381" y="385" type="curve" smooth="yes"/>
			<point x="381" y="306"/>
			<point x="351" y="261"/>
			<point x="176" y="215" type="curve"/>
			<point x="176" y="153" type="line"/>
			<point x="215" y="160"/>
			<point x="250" y="164"/>
			<point x="282" y="164" type="curve" smooth="yes"/>
			<point x="364" y="164"/>
			<point x="413" y="119"/>
			<point x="413" y="31" type="curve" smooth="yes"/>
			<point x="413" y="-15"/>
			<point x="398" y="-53"/>
			<point x="376" y="-92" type="curve"/>
			<point x="421" y="-50" type="line"/>
			<point x="341" y="-93"/>
			<point x="267" y="-109"/>
			<point x="184" y="-109" type="curve" smooth="yes"/>
			<point x="151" y="-109"/>
			<point x="116" y="-106"/>
			<point x="78" y="-102" type="curve"/>
			<point x="65" y="-165" type="line"/>
			<point x="121" y="-179"/>
			<point x="175" y="-185"/>
		</contour>
	</outline>
</glyph>
<glyph name="five" format="2">
	<advance width="571"/>
	<unicode hex="0035"/>
	<guideline x="57" y="441" angle="0"/>
	<outline>
		<contour>
			<point x="218" y="-185" type="curve" smooth="yes"/>
			<point x="383" y="-185"/>
			<point x="513" y="-92"/>
			<point x="513" y="66" type="curve" smooth="yes"/>
			<point x="513" y="174"/>
			<point x="458" y="281"/>
			<point x="308" y="281" type="curve" smooth="yes"/>
			<point x="242" y="281"/>
			<point x="185" y="256"/>
			<point x="142" y="230" type="curve"/>
			<point x="149" y="197" type="line"/>
			<point x="176" y="500" type="line"/>
			<point x="135" y="446" type="line"/>
			<point x="468" y="438" type="line"/>
			<point x="468" y="541" type="line"/>
			<point x="104" y="538" type="line"/>
			<point x="84" y="194" type="line"/>
			<point x="126" y="165" type="line"/>
			<point x="156" y="178"/>
			<point x="208" y="195"/>
			<point x="271" y="195" type="curve" smooth="yes"/>
			<point x="366" y="195"/>
			<point x="404" y="131"/>
			<point x="404" y="42" type="curve" smooth="yes"/>
			<point x="404" y="-14"/>
			<point x="388" y="-53"/>
			<point x="366" y="-92" type="curve"/>
			<point x="411" y="-50" type="line"/>
			<point x="331" y="-93"/>
			<point x="257" y="-109"/>
			<point x="174" y="-109" type="curve" smooth="yes"/>
			<point x="141" y="-109"/>
			<point x="106" y="-106"/>
			<point x="68" y="-102" type="curve"/>
			<point x="55" y="-165" type="line"/>
			<point x="111" y="-179"/>
			<point x="166" y="-185"/>
		</contour>
	</outline>
</glyph>
<glyph name="six" format="2">
	<advance width="634"/>
	<unicode hex="0036"/>
	<outline>
		<contour>
			<point x="307" y="-14" type="curve" smooth="yes"/>
			<point x="487" y="-14"/>
			<point x="578" y="115"/>
			<point x="578" y="281" type="curve" smooth="yes"/>
			<point x="578" y="408"/>
			<point x="510" y="496"/>
			<point x="374" y="496" type="curve" smooth="yes"/>
			<point x="302" y="496"/>
			<point x="232" y="469"/>
			<point x="166" y="427" type="curve"/>
			<point x="170" y="379" type="line"/>
			<point x="212" y="397"/>
			<point x="264" y="410"/>
			<point x="313" y="410" type="curve" smooth="yes"/>
			<point x="429" y="410"/>
			<point x="474" y="345"/>
			<point x="474" y="256" type="curve" smooth="yes"/>
			<point x="474" y="197"/>
			<point x="463" y="150"/>
			<point x="441" y="97" type="curve"/>
			<point x="404" y="80"/>
			<point x="358" y="68"/>
			<point x="317" y="68" type="curve" smooth="yes"/>
			<point x="206" y="68"/>
			<point x="169" y="157"/>
			<point x="169" y="281" type="curve" smooth="yes"/>
			<point x="169" y="518"/>
			<point x="277" y="687"/>
			<point x="510" y="696" type="curve"/>
			<point x="504" y="750" type="line"/>
			<point x="230" y="750"/>
			<point x="60" y="555"/>
			<point x="60" y="290" type="curve" smooth="yes"/>
			<point x="60" y="110"/>
			<point x="132" y="-14"/>
		</contour>
	</outline>
</glyph>
<glyph name="seven" format="2">
	<advance width="622"/>
	<unicode hex="0037"/>
	<outline>
		<contour>
			<point x="175" y="-186" type="curve" smooth="yes"/>
			<point x="192" y="-186"/>
			<point x="209" y="-185"/>
			<point x="226" y="-182" type="curve"/>
			<point x="552" y="472" type="line"/>
			<point x="552" y="546" type="line"/>
			<point x="61" y="546" type="line"/>
			<point x="55" y="339" type="line"/>
			<point x="112" y="339" type="line"/>
			<point x="134" y="453" type="line"/>
			<point x="519" y="453" type="line"/>
			<point x="492" y="491" type="line"/>
			<point x="149" y="-80" type="line" smooth="yes"/>
			<point x="132" y="-108"/>
			<point x="124" y="-131"/>
			<point x="124" y="-148" type="curve" smooth="yes"/>
			<point x="124" y="-173"/>
			<point x="141" y="-186"/>
		</contour>
	</outline>
</glyph>
<glyph name="eight" format="2">
	<advance width="640"/>
	<unicode hex="0038"/>
	<outline>
		<contour>
			<point x="309" y="-16" type="curve" smooth="yes"/>
			<point x="462" y="-16"/>
			<point x="574" y="70"/>
			<point x="574" y="218" type="curve" smooth="yes"/>
			<point x="574" y="318"/>
			<point x="525" y="387"/>
			<point x="397" y="413" type="curve"/>
			<point x="403" y="390" type="line"/>
			<point x="498" y="424"/>
			<point x="543" y="476"/>
			<point x="543" y="576" type="curve" smooth="yes"/>
			<point x="543" y="662"/>
			<point x="478" y="748"/>
			<point x="331" y="748" type="curve" smooth="yes"/>
			<point x="217" y="748"/>
			<point x="100" y="688"/>
			<point x="100" y="541" type="curve" smooth="yes"/>
			<point x="100" y="455"/>
			<point x="149" y="398"/>
			<point x="234" y="364" type="curve"/>
			<point x="234" y="386" type="line"/>
			<point x="131" y="364"/>
			<point x="60" y="297"/>
			<point x="60" y="181" type="curve" smooth="yes"/>
			<point x="60" y="69"/>
			<point x="145" y="-16"/>
		</contour>
		<contour>
			<point x="323" y="70" type="curve" smooth="yes"/>
			<point x="226" y="70"/>
			<point x="162" y="113"/>
			<point x="162" y="205" type="curve" smooth="yes"/>
			<point x="162" y="288"/>
			<point x="218" y="336"/>
			<point x="317" y="350" type="curve"/>
			<point x="225" y="357" type="line"/>
			<point x="415" y="310"/>
			<point x="476" y="283"/>
			<point x="476" y="203" type="curve" smooth="yes"/>
			<point x="476" y="158"/>
			<point x="465" y="133"/>
			<point x="448" y="102" type="curve"/>
			<point x="409" y="81"/>
			<point x="365" y="70"/>
		</contour>
		<contour>
			<point x="334" y="411" type="curve"/>
			<point x="416" y="420" type="line"/>
			<point x="283" y="456"/>
			<point x="197" y="465"/>
			<point x="197" y="563" type="curve" smooth="yes"/>
			<point x="197" y="604"/>
			<point x="206" y="630"/>
			<point x="220" y="653" type="curve"/>
			<point x="248" y="670"/>
			<point x="284" y="678"/>
			<point x="320" y="678" type="curve" smooth="yes"/>
			<point x="407" y="678"/>
			<point x="452" y="640"/>
			<point x="452" y="570" type="curve" smooth="yes"/>
			<point x="452" y="504"/>
			<point x="434" y="453"/>
		</contour>
	</outline>
</glyph>
<glyph name="nine" format="2">
	<advance width="634"/>
	<unicode hex="0039"/>
	<guideline x="1" y="-186" angle="0"/>
	<outline>
		<contour>
			<point x="124" y="-133" type="curve"/>
			<point x="130" y="-187" type="line"/>
			<point x="404" y="-187"/>
			<point x="574" y="0"/>
			<point x="574" y="253" type="curve" smooth="yes"/>
			<point x="574" y="433"/>
			<point x="502" y="557"/>
			<point x="327" y="557" type="curve" smooth="yes"/>
			<point x="147" y="557"/>
			<point x="56" y="428"/>
			<point x="56" y="262" type="curve" smooth="yes"/>
			<point x="56" y="141"/>
			<point x="124" y="57"/>
			<point x="260" y="57" type="curve" smooth="yes"/>
			<point x="332" y="57"/>
			<point x="402" y="84"/>
			<point x="468" y="126" type="curve"/>
			<point x="464" y="174" type="line"/>
			<point x="422" y="156"/>
			<point x="370" y="143"/>
			<point x="321" y="143" type="curve" smooth="yes"/>
			<point x="205" y="143"/>
			<point x="160" y="204"/>
			<point x="160" y="287" type="curve" smooth="yes"/>
			<point x="160" y="350"/>
			<point x="171" y="402"/>
			<point x="193" y="458" type="curve"/>
			<point x="230" y="475"/>
			<point x="271" y="485"/>
			<point x="309" y="485" type="curve" smooth="yes"/>
			<point x="432" y="485"/>
			<point x="465" y="388"/>
			<point x="465" y="262" type="curve" smooth="yes"/>
			<point x="465" y="36"/>
			<point x="357" y="-124"/>
		</contour>
	</outline>
</glyph>
<glyph name="question" format="2">
	<advance width="483"/>
	<unicode hex="003F"/>
	<outline>
		<contour>
			<point x="132" y="390" type="curve"/>
			<point x="132" y="224" type="line"/>
			<point x="235" y="224" type="line"/>
			<point x="235" y="378" type="line"/>
			<point x="174" y="331" type="line"/>
			<point x="329" y="353"/>
			<point x="445" y="416"/>
			<point x="445" y="553" type="curve" smooth="yes"/>
			<point x="445" y="660"/>
			<point x="406" y="751"/>
			<point x="240" y="751" type="curve" smooth="yes"/>
			<point x="157" y="751"/>
			<point x="72" y="718"/>
			<point x="38" y="693" type="curve"/>
			<point x="39" y="542" type="line"/>
			<point x="95" y="542" type="line"/>
			<point x="124" y="705" type="line"/>
			<point x="95" y="644" type="line"/>
			<point x="133" y="660"/>
			<point x="178" y="671"/>
			<point x="217" y="671" type="curve" smooth="yes"/>
			<point x="296" y="671"/>
			<point x="338" y="637"/>
			<point x="338" y="562" type="curve" smooth="yes"/>
			<point x="338" y="530"/>
			<point x="333" y="493"/>
			<point x="322" y="455" type="curve"/>
			<point x="284" y="422"/>
			<point x="220" y="404"/>
		</contour>
		<contour>
			<point x="184" y="-12" type="curve" smooth="yes"/>
			<point x="234" y="-12"/>
			<point x="255" y="8"/>
			<point x="255" y="58" type="curve" smooth="yes"/>
			<point x="255" y="108"/>
			<point x="233" y="127"/>
			<point x="186" y="127" type="curve" smooth="yes"/>
			<point x="139" y="127"/>
			<point x="117" y="109"/>
			<point x="117" y="56" type="curve" smooth="yes"/>
			<point x="117" y="8"/>
			<point x="137" y="-12"/>
		</contour>
	</outline>
</glyph>
<glyph name="A" format="2">
	<advance width="782"/>
	<unicode hex="0041"/>
	<anchor x="692" y="10" name="ogonek"/>
	<anchor x="390" y="0" name="bottom"/>
	<anchor x="380" y="735" name="top"/>
	<outline>
		<contour>
			<point x="10" y="0" type="line"/>
			<point x="283" y="0" type="line"/>
			<point x="283" y="55" type="line"/>
			<point x="253" y="55" type="line" smooth="yes"/>
			<point x="205" y="55"/>
			<point x="184" y="69"/>
			<point x="184" y="100" type="curve" smooth="yes"/>
			<point x="184" y="109"/>
			<point x="186" y="121"/>
			<point x="190" y="134" type="curve" smooth="yes"/>
			<point x="225" y="238" type="line"/>
			<point x="503" y="238" type="line"/>
			<point x="560" y="57" type="line"/>
			<point x="469" y="57" type="line"/>
			<point x="469" y="0" type="line"/>
			<point x="769" y="0" type="line"/>
			<point x="769" y="55" type="line"/>
			<point x="706" y="55"/>
			<point x="683" y="73"/>
			<point x="657" y="147" type="curve" smooth="yes"/>
			<point x="451" y="751" type="line"/>
			<point x="327" y="751" type="line"/>
			<point x="83" y="57" type="line"/>
			<point x="10" y="57" type="line"/>
		</contour>
		<contour>
			<point x="250" y="313" type="line"/>
			<point x="367" y="669" type="line"/>
			<point x="479" y="313" type="line"/>
		</contour>
	</outline>
</glyph>
<glyph name="B" format="2">
	<advance width="678"/>
	<unicode hex="0042"/>
	<outline>
		<contour>
			<point x="31" y="0" type="line"/>
			<point x="360" y="0" type="line" smooth="yes"/>
			<point x="515" y="0"/>
			<point x="635" y="59"/>
			<point x="635" y="226" type="curve" smooth="yes"/>
			<point x="635" y="341"/>
			<point x="550" y="397"/>
			<point x="461" y="404" type="curve"/>
			<point x="538" y="422"/>
			<point x="596" y="469"/>
			<point x="596" y="570" type="curve" smooth="yes"/>
			<point x="596" y="663"/>
			<point x="523" y="745"/>
			<point x="344" y="745" type="curve" smooth="yes"/>
			<point x="240" y="745"/>
			<point x="135" y="741"/>
			<point x="31" y="735" type="curve"/>
			<point x="31" y="678" type="line"/>
			<point x="94" y="678"/>
			<point x="122" y="662"/>
			<point x="122" y="610" type="curve" smooth="yes"/>
			<point x="121" y="59" type="line"/>
			<point x="31" y="59" type="line"/>
		</contour>
		<contour>
			<point x="345" y="68" type="curve" smooth="yes"/>
			<point x="274" y="68"/>
			<point x="232" y="80"/>
			<point x="232" y="131" type="curve" smooth="yes"/>
			<point x="232" y="358" type="line"/>
			<point x="266" y="362"/>
			<point x="297" y="364"/>
			<point x="325" y="364" type="curve" smooth="yes"/>
			<point x="467" y="364"/>
			<point x="519" y="319"/>
			<point x="519" y="224" type="curve" smooth="yes"/>
			<point x="519" y="178"/>
			<point x="511" y="140"/>
			<point x="500" y="108" type="curve"/>
			<point x="455" y="73"/>
			<point x="395" y="68"/>
		</contour>
		<contour>
			<point x="292" y="426" type="curve" smooth="yes"/>
			<point x="233" y="426" type="line"/>
			<point x="233" y="671" type="line"/>
			<point x="342" y="671" type="line" smooth="yes"/>
			<point x="438" y="671"/>
			<point x="477" y="634"/>
			<point x="477" y="555" type="curve" smooth="yes"/>
			<point x="477" y="465"/>
			<point x="433" y="426"/>
		</contour>
	</outline>
</glyph>
<glyph name="C" format="2">
	<advance width="662"/>
	<unicode hex="0043"/>
	<outline>
		<contour>
			<point x="366" y="-18" type="curve" smooth="yes"/>
			<point x="458" y="-18"/>
			<point x="554" y="15"/>
			<point x="636" y="85" type="curve"/>
			<point x="614" y="124" type="line"/>
			<point x="539" y="91"/>
			<point x="467" y="74"/>
			<point x="403" y="74" type="curve" smooth="yes"/>
			<point x="270" y="74"/>
			<point x="159" y="158"/>
			<point x="159" y="339" type="curve" smooth="yes"/>
			<point x="159" y="444"/>
			<point x="184" y="549"/>
			<point x="223" y="615" type="curve"/>
			<point x="275" y="644"/>
			<point x="340" y="663"/>
			<point x="397" y="663" type="curve" smooth="yes"/>
			<point x="526" y="663"/>
			<point x="552" y="632"/>
			<point x="568" y="526" type="curve"/>
			<point x="625" y="527" type="line"/>
			<point x="625" y="717" type="line"/>
			<point x="558" y="738"/>
			<point x="496" y="748"/>
			<point x="428" y="748" type="curve" smooth="yes"/>
			<point x="200" y="748"/>
			<point x="43" y="591"/>
			<point x="43" y="299" type="curve" smooth="yes"/>
			<point x="43" y="98"/>
			<point x="195" y="-18"/>
		</contour>
	</outline>
</glyph>
<glyph name="D" format="2">
	<advance width="769"/>
	<unicode hex="0044"/>
	<outline>
		<contour>
			<point x="38" y="0" type="line"/>
			<point x="321" y="0" type="line" smooth="yes"/>
			<point x="604" y="0"/>
			<point x="726" y="146"/>
			<point x="726" y="395" type="curve" smooth="yes"/>
			<point x="726" y="617"/>
			<point x="599" y="747"/>
			<point x="363" y="747" type="curve" smooth="yes"/>
			<point x="255" y="747"/>
			<point x="126" y="741"/>
			<point x="31" y="735" type="curve"/>
			<point x="31" y="678" type="line"/>
			<point x="101" y="678"/>
			<point x="129" y="662"/>
			<point x="129" y="610" type="curve" smooth="yes"/>
			<point x="128" y="59" type="line"/>
			<point x="38" y="59" type="line"/>
		</contour>
		<contour>
			<point x="317" y="70" type="curve" smooth="yes"/>
			<point x="240" y="70" type="line"/>
			<point x="240" y="671" type="line"/>
			<point x="363" y="671" type="line" smooth="yes"/>
			<point x="514" y="671"/>
			<point x="605" y="567"/>
			<point x="605" y="372" type="curve" smooth="yes"/>
			<point x="605" y="159"/>
			<point x="524" y="70"/>
		</contour>
	</outline>
</glyph>
<glyph name="E" format="2">
	<advance width="650"/>
	<unicode hex="0045"/>
	<anchor x="585" y="10" name="ogonek"/>
	<anchor x="325" y="735" name="top"/>
	<anchor x="20" y="735" name="topleft"/>
	<anchor x="325" y="0" name="bottom"/>
	<outline>
		<contour>
			<point x="48" y="0" type="line"/>
			<point x="560" y="0" type="line"/>
			<point x="560" y="69" type="line"/>
			<point x="244" y="69" type="line"/>
			<point x="243" y="666" type="line"/>
			<point x="547" y="666" type="line"/>
			<point x="547" y="735" type="line"/>
			<point x="39" y="735" type="line"/>
			<point x="39" y="678" type="line"/>
			<point x="106" y="678"/>
			<point x="133" y="661"/>
			<point x="133" y="605" type="curve" smooth="yes"/>
			<point x="132" y="62" type="line"/>
			<point x="48" y="62" type="line"/>
		</contour>
		<contour>
			<point x="415" y="69" type="curve"/>
			<point x="550" y="0" type="line"/>
			<point x="596" y="0" type="line"/>
			<point x="598" y="221" type="line"/>
			<point x="540" y="221" type="line"/>
			<point x="527" y="106"/>
			<point x="516" y="69"/>
		</contour>
		<contour>
			<point x="222" y="343" type="line"/>
			<point x="484" y="343" type="line"/>
			<point x="484" y="417" type="line"/>
			<point x="222" y="417" type="line"/>
		</contour>
		<contour>
			<point x="515" y="527" type="curve"/>
			<point x="573" y="527" type="line"/>
			<point x="571" y="735" type="line"/>
			<point x="525" y="735" type="line"/>
			<point x="390" y="666" type="line"/>
			<point x="491" y="666"/>
			<point x="502" y="630"/>
		</contour>
	</outline>
</glyph>
<glyph name="F" format="2">
	<advance width="607"/>
	<unicode hex="0046"/>
	<outline>
		<contour>
			<point x="49" y="0" type="line"/>
			<point x="366" y="0" type="line"/>
			<point x="366" y="57" type="line"/>
			<point x="336" y="57" type="line" smooth="yes"/>
			<point x="273" y="57"/>
			<point x="244" y="73"/>
			<point x="244" y="125" type="curve" smooth="yes"/>
			<point x="243" y="666" type="line"/>
			<point x="552" y="666" type="line"/>
			<point x="552" y="735" type="line"/>
			<point x="39" y="735" type="line"/>
			<point x="39" y="678" type="line"/>
			<point x="106" y="678"/>
			<point x="133" y="661"/>
			<point x="133" y="605" type="curve" smooth="yes"/>
			<point x="133" y="59" type="line"/>
			<point x="49" y="59" type="line"/>
		</contour>
		<contour>
			<point x="228" y="321" type="line"/>
			<point x="495" y="321" type="line"/>
			<point x="495" y="387" type="line"/>
			<point x="228" y="387" type="line"/>
		</contour>
		<contour>
			<point x="515" y="527" type="curve"/>
			<point x="573" y="527" type="line"/>
			<point x="571" y="735" type="line"/>
			<point x="525" y="735" type="line"/>
			<point x="390" y="666" type="line"/>
			<point x="491" y="666"/>
			<point x="502" y="630"/>
		</contour>
	</outline>
</glyph>
<glyph name="H" format="2">
	<advance width="845"/>
	<unicode hex="0048"/>
	<outline>
		<contour>
			<point x="43" y="0" type="line"/>
			<point x="336" y="0" type="line"/>
			<point x="336" y="57" type="line"/>
			<point x="269" y="57"/>
			<point x="242" y="73"/>
			<point x="242" y="125" type="curve" smooth="yes"/>
			<point x="243" y="676" type="line"/>
			<point x="327" y="676" type="line"/>
			<point x="327" y="735" type="line"/>
			<point x="43" y="735" type="line"/>
			<point x="43" y="678" type="line"/>
			<point x="105" y="678"/>
			<point x="132" y="661"/>
			<point x="132" y="605" type="curve" smooth="yes"/>
			<point x="131" y="59" type="line"/>
			<point x="43" y="59" type="line"/>
		</contour>
		<contour>
			<point x="234" y="346" type="line"/>
			<point x="611" y="346" type="line"/>
			<point x="611" y="421" type="line"/>
			<point x="234" y="421" type="line"/>
		</contour>
		<contour>
			<point x="513" y="0" type="line"/>
			<point x="802" y="0" type="line"/>
			<point x="802" y="57" type="line"/>
			<point x="739" y="57"/>
			<point x="712" y="73"/>
			<point x="712" y="125" type="curve" smooth="yes"/>
			<point x="713" y="676" type="line"/>
			<point x="802" y="676" type="line"/>
			<point x="802" y="735" type="line"/>
			<point x="513" y="735" type="line"/>
			<point x="513" y="678" type="line"/>
			<point x="575" y="678"/>
			<point x="602" y="661"/>
			<point x="602" y="605" type="curve" smooth="yes"/>
			<point x="601" y="59" type="line"/>
			<point x="513" y="59" type="line"/>
		</contour>
	</outline>
</glyph>
<glyph name="I" format="2">
	<advance width="376"/>
	<unicode hex="0049"/>
	<anchor x="338" y="10" name="ogonek"/>
	<anchor x="188" y="735" name="top"/>
	<anchor x="20" y="735" name="topleft"/>
	<anchor x="188" y="0" name="bottom"/>
	<outline>
		<contour>
			<point x="42" y="0" type="line"/>
			<point x="333" y="0" type="line"/>
			<point x="333" y="57" type="line"/>
			<point x="270" y="57"/>
			<point x="243" y="73"/>
			<point x="243" y="125" type="curve" smooth="yes"/>
			<point x="244" y="676" type="line"/>
			<point x="333" y="676" type="line"/>
			<point x="333" y="735" type="line"/>
			<point x="42" y="735" type="line"/>
			<point x="42" y="678" type="line"/>
			<point x="105" y="678"/>
			<point x="133" y="662"/>
			<point x="133" y="610" type="curve" smooth="yes"/>
			<point x="132" y="59" type="line"/>
			<point x="42" y="59" type="line"/>
		</contour>
	</outline>
</glyph>
<glyph name="J" format="2">
	<advance width="406"/>
	<unicode hex="004A"/>
	<outline>
		<contour>
			<point x="9" y="-202" type="curve"/>
			<point x="23" y="-244" type="line"/>
			<point x="184" y="-222"/>
			<point x="273" y="-88"/>
			<point x="273" y="53" type="curve" smooth="yes"/>
			<point x="274" y="676" type="line"/>
			<point x="363" y="676" type="line"/>
			<point x="363" y="735" type="line"/>
			<point x="41" y="734" type="line"/>
			<point x="41" y="677" type="line"/>
			<point x="72" y="678" type="line"/>
			<point x="134" y="678"/>
			<point x="163" y="663"/>
			<point x="163" y="611" type="curve" smooth="yes"/>
			<point x="162" y="59" type="line" smooth="yes"/>
			<point x="162" y="-61"/>
			<point x="125" y="-167"/>
		</contour>
	</outline>
</glyph>
<glyph name="K" format="2">
	<advance width="723"/>
	<unicode hex="004B"/>
	<guideline x="-2" y="-13" angle="0"/>
	<outline>
		<contour>
			<point x="42" y="0" type="line"/>
			<point x="328" y="0" type="line"/>
			<point x="328" y="57" type="line"/>
			<point x="270" y="57"/>
			<point x="243" y="73"/>
			<point x="243" y="125" type="curve" smooth="yes"/>
			<point x="244" y="676" type="line"/>
			<point x="327" y="676" type="line"/>
			<point x="327" y="735" type="line"/>
			<point x="42" y="735" type="line"/>
			<point x="42" y="678" type="line"/>
			<point x="105" y="678"/>
			<point x="133" y="662"/>
			<point x="133" y="610" type="curve" smooth="yes"/>
			<point x="132" y="59" type="line"/>
			<point x="42" y="59" type="line"/>
		</contour>
		<contour>
			<point x="408" y="329" type="line"/>
			<point x="363" y="392" type="line"/>
			<point x="218" y="392" type="line"/>
			<point x="218" y="330" type="line"/>
		</contour>
		<contour>
			<point x="599" y="-14" type="curve" smooth="yes"/>
			<point x="650" y="-14"/>
			<point x="686" y="3"/>
			<point x="723" y="31" type="curve"/>
			<point x="703" y="79" type="line"/>
			<point x="642" y="66" type="line"/>
			<point x="562" y="139"/>
			<point x="440" y="299"/>
			<point x="375" y="403" type="curve"/>
			<point x="290" y="361" type="line"/>
			<point x="479" y="76" type="line" smooth="yes"/>
			<point x="525" y="7"/>
			<point x="555" y="-14"/>
		</contour>
		<contour>
			<point x="359" y="335" type="line"/>
			<point x="530" y="569" type="line" smooth="yes"/>
			<point x="578" y="631"/>
			<point x="620" y="678"/>
			<point x="665" y="678" type="curve" smooth="yes"/>
			<point x="698" y="678" type="line"/>
			<point x="698" y="735" type="line"/>
			<point x="454" y="735" type="line"/>
			<point x="454" y="674" type="line"/>
			<point x="515" y="674" type="line"/>
			<point x="308" y="370" type="line"/>
		</contour>
	</outline>
</glyph>
<glyph name="L" format="2">
	<advance width="640"/>
	<unicode hex="004C"/>
	<outline>
		<contour>
			<point x="45" y="0" type="line"/>
			<point x="541" y="0" type="line"/>
			<point x="541" y="68" type="line"/>
			<point x="241" y="68" type="line"/>
			<point x="240" y="695" type="line"/>
			<point x="130" y="695" type="line"/>
			<point x="129" y="62" type="line"/>
			<point x="45" y="62" type="line"/>
		</contour>
		<contour>
			<point x="416" y="68" type="curve"/>
			<point x="471" y="0" type="line"/>
			<point x="597" y="0" type="line"/>
			<point x="599" y="242" type="line"/>
			<point x="541" y="242" type="line"/>
			<point x="530" y="115"/>
			<point x="507" y="68"/>
		</contour>
		<contour>
			<point x="130" y="610" type="curve"/>
			<point x="241" y="676" type="line"/>
			<point x="330" y="676" type="line"/>
			<point x="330" y="735" type="line"/>
			<point x="39" y="735" type="line"/>
			<point x="39" y="678" type="line"/>
			<point x="102" y="678"/>
			<point x="130" y="662"/>
		</contour>
	</outline>
</glyph>
<glyph name="M" format="2">
	<advance width="985"/>
	<unicode hex="004D"/>
	<guideline x="241" y="639" angle="0"/>
	<outline>
		<contour>
			<point x="21" y="0" type="line"/>
			<point x="284" y="0" type="line"/>
			<point x="284" y="57" type="line"/>
			<point x="229" y="57"/>
			<point x="192" y="73"/>
			<point x="195" y="125" type="curve" smooth="yes"/>
			<point x="225" y="638" type="line"/>
			<point x="436" y="47" type="line"/>
			<point x="527" y="47" type="line"/>
			<point x="745" y="683" type="line"/>
			<point x="729" y="685" type="line"/>
			<point x="765" y="59" type="line"/>
			<point x="687" y="59" type="line"/>
			<point x="687" y="0" type="line"/>
			<point x="964" y="0" type="line"/>
			<point x="964" y="57" type="line"/>
			<point x="902" y="57"/>
			<point x="877" y="73"/>
			<point x="874" y="125" type="curve" smooth="yes"/>
			<point x="842" y="605" type="line" smooth="yes"/>
			<point x="838" y="664"/>
			<point x="880" y="678"/>
			<point x="933" y="678" type="curve"/>
			<point x="933" y="735" type="line"/>
			<point x="682" y="733" type="line"/>
			<point x="475" y="108" type="line"/>
			<point x="535" y="94" type="line"/>
			<point x="310" y="735" type="line"/>
			<point x="47" y="735" type="line"/>
			<point x="47" y="678" type="line"/>
			<point x="110" y="678"/>
			<point x="153" y="664"/>
			<point x="148" y="605" type="curve" smooth="yes"/>
			<point x="100" y="59" type="line"/>
			<point x="24" y="59" type="line"/>
		</contour>
	</outline>
</glyph>
<glyph name="N" format="2">
	<advance width="812"/>
	<unicode hex="004E"/>
	<anchor x="433" y="715" name="top"/>
	<anchor x="423" y="0" name="bottom"/>
	<outline>
		<contour>
			<point x="564" y="0" type="line"/>
			<point x="640" y="0" type="line"/>
			<point x="640" y="91" type="line"/>
			<point x="271" y="735" type="line"/>
			<point x="192" y="735" type="line"/>
			<point x="193" y="649" type="line"/>
		</contour>
		<contour>
			<point x="38" y="0" type="line"/>
			<point x="291" y="0" type="line"/>
			<point x="291" y="57" type="line"/>
			<point x="224" y="57"/>
			<point x="197" y="73"/>
			<point x="197" y="125" type="curve" smooth="yes"/>
			<point x="198" y="735" type="line"/>
			<point x="38" y="735" type="line"/>
			<point x="38" y="678" type="line"/>
			<point x="100" y="678"/>
			<point x="125" y="661"/>
			<point x="125" y="605" type="curve" smooth="yes"/>
			<point x="124" y="59" type="line"/>
			<point x="38" y="59" type="line"/>
		</contour>
		<contour>
			<point x="632" y="605" type="curve" smooth="yes"/>
			<point x="632" y="0" type="line"/>
			<point x="706" y="0" type="line"/>
			<point x="701" y="179" type="line"/>
			<point x="704" y="676" type="line"/>
			<point x="788" y="676" type="line"/>
			<point x="788" y="735" type="line"/>
			<point x="544" y="735" type="line"/>
			<point x="544" y="678" type="line"/>
			<point x="606" y="678"/>
			<point x="632" y="661"/>
		</contour>
	</outline>
</glyph>
<glyph name="O" format="2">
	<advance width="794"/>
	<unicode hex="004F"/>
	<anchor x="397" y="0" name="bottom"/>
	<anchor x="715" y="10" name="ogonek"/>
	<anchor x="397" y="735" name="top"/>
	<anchor x="774" y="735" name="topright"/>
	<anchor x="20" y="735" name="topleft"/>
	<anchor x="397" y="368" name="center"/>
	<outline>
		<contour>
			<point x="396" y="-16" type="curve" smooth="yes"/>
			<point x="646" y="-16"/>
			<point x="751" y="159"/>
			<point x="751" y="378" type="curve" smooth="yes"/>
			<point x="751" y="615"/>
			<point x="637" y="751"/>
			<point x="400" y="751" type="curve" smooth="yes"/>
			<point x="158" y="751"/>
			<point x="43" y="580"/>
			<point x="43" y="356" type="curve" smooth="yes"/>
			<point x="43" y="124"/>
			<point x="160" y="-16"/>
		</contour>
		<contour>
			<point x="394" y="74" type="curve" smooth="yes"/>
			<point x="237" y="74"/>
			<point x="161" y="177"/>
			<point x="161" y="358" type="curve" smooth="yes"/>
			<point x="161" y="470"/>
			<point x="190" y="574"/>
			<point x="221" y="622" type="curve"/>
			<point x="284" y="648"/>
			<point x="340" y="660"/>
			<point x="400" y="660" type="curve" smooth="yes"/>
			<point x="554" y="660"/>
			<point x="630" y="560"/>
			<point x="630" y="376" type="curve" smooth="yes"/>
			<point x="630" y="270"/>
			<point x="601" y="162"/>
			<point x="570" y="112" type="curve"/>
			<point x="508" y="86"/>
			<point x="453" y="74"/>
		</contour>
	</outline>
</glyph>
<glyph name="P" format="2">
	<advance width="652"/>
	<unicode hex="0050"/>
	<outline>
		<contour>
			<point x="39" y="0" type="line"/>
			<point x="362" y="0" type="line"/>
			<point x="362" y="57" type="line"/>
			<point x="332" y="57" type="line"/>
			<point x="269" y="57"/>
			<point x="240" y="73"/>
			<point x="240" y="125" type="curve" smooth="yes"/>
			<point x="241" y="671" type="line"/>
			<point x="350" y="671" type="line"/>
			<point x="439" y="671"/>
			<point x="490" y="616"/>
			<point x="490" y="509" type="curve" smooth="yes"/>
			<point x="490" y="364"/>
			<point x="429" y="323"/>
			<point x="308" y="323" type="curve" smooth="yes"/>
			<point x="280" y="323"/>
			<point x="246" y="323"/>
			<point x="209" y="324" type="curve"/>
			<point x="209" y="262" type="line"/>
			<point x="252" y="260"/>
			<point x="282" y="259"/>
			<point x="332" y="259" type="curve" smooth="yes"/>
			<point x="514" y="259"/>
			<point x="614" y="382"/>
			<point x="614" y="510" type="curve" smooth="yes"/>
			<point x="614" y="637"/>
			<point x="541" y="745"/>
			<point x="352" y="745" type="curve" smooth="yes"/>
			<point x="248" y="745"/>
			<point x="143" y="741"/>
			<point x="39" y="735" type="curve"/>
			<point x="39" y="678" type="line"/>
			<point x="102" y="678"/>
			<point x="130" y="662"/>
			<point x="130" y="610" type="curve" smooth="yes"/>
			<point x="129" y="59" type="line"/>
			<point x="39" y="59" type="line"/>
		</contour>
	</outline>
</glyph>
<glyph name="Q" format="2">
	<advance width="798"/>
	<unicode hex="0051"/>
	<outline>
		<contour>
			<point x="641" y="-216" type="curve" smooth="yes"/>
			<point x="696" y="-216"/>
			<point x="761" y="-152"/>
			<point x="797" y="-71" type="curve"/>
			<point x="759" y="-44" type="line"/>
			<point x="741" y="-65"/>
			<point x="722" y="-85"/>
			<point x="696" y="-100" type="curve"/>
			<point x="610" y="-100"/>
			<point x="525" y="-53"/>
			<point x="421" y="17" type="curve"/>
			<point x="348" y="-11" type="line"/>
			<point x="462" y="-112"/>
			<point x="573" y="-216"/>
		</contour>
		<component base="O"/>
	</outline>
</glyph>
<glyph name="R" format="2">
	<advance width="717"/>
	<unicode hex="0052"/>
	<guideline x="5" y="-15" angle="0"/>
	<outline>
		<contour>
			<point x="43" y="0" type="line"/>
			<point x="331" y="0" type="line"/>
			<point x="330" y="57" type="line"/>
			<point x="273" y="57"/>
			<point x="244" y="73"/>
			<point x="244" y="125" type="curve" smooth="yes"/>
			<point x="245" y="671" type="line"/>
			<point x="344" y="671" type="line" smooth="yes"/>
			<point x="459" y="671"/>
			<point x="503" y="627"/>
			<point x="503" y="520" type="curve" smooth="yes"/>
			<point x="503" y="412"/>
			<point x="443" y="369"/>
			<point x="312" y="369" type="curve" smooth="yes"/>
			<point x="213" y="369" type="line"/>
			<point x="213" y="305" type="line"/>
			<point x="318" y="305" type="line" smooth="yes"/>
			<point x="520" y="305"/>
			<point x="618" y="391"/>
			<point x="618" y="532" type="curve" smooth="yes"/>
			<point x="618" y="662"/>
			<point x="539" y="745"/>
			<point x="356" y="745" type="curve" smooth="yes"/>
			<point x="252" y="745"/>
			<point x="147" y="741"/>
			<point x="43" y="735" type="curve"/>
			<point x="43" y="678" type="line"/>
			<point x="106" y="678"/>
			<point x="134" y="662"/>
			<point x="134" y="610" type="curve" smooth="yes"/>
			<point x="133" y="59" type="line"/>
			<point x="43" y="59" type="line"/>
		</contour>
		<contour>
			<point x="587" y="-14" type="curve" smooth="yes"/>
			<point x="637" y="-14"/>
			<point x="675" y="2"/>
			<point x="714" y="31" type="curve"/>
			<point x="698" y="79" type="line"/>
			<point x="638" y="66" type="line"/>
			<point x="579" y="130"/>
			<point x="488" y="270"/>
			<point x="443" y="361" type="curve"/>
			<point x="354" y="319" type="line"/>
			<point x="476" y="76" type="line" smooth="yes"/>
			<point x="512" y="5"/>
			<point x="543" y="-14"/>
		</contour>
	</outline>
</glyph>
<glyph name="S" format="2">
	<advance width="592"/>
	<unicode hex="0053"/>
	<outline>
		<contour>
			<point x="277" y="-16" type="curve" smooth="yes"/>
			<point x="431" y="-16"/>
			<point x="549" y="60"/>
			<point x="549" y="203" type="curve" smooth="yes"/>
			<point x="549" y="358"/>
			<point x="430" y="399"/>
			<point x="321" y="432" type="curve" smooth="yes"/>
			<point x="229" y="459"/>
			<point x="146" y="486"/>
			<point x="146" y="563" type="curve" smooth="yes"/>
			<point x="146" y="598"/>
			<point x="153" y="628"/>
			<point x="171" y="654" type="curve"/>
			<point x="209" y="666"/>
			<point x="251" y="673"/>
			<point x="293" y="673" type="curve" smooth="yes"/>
			<point x="385" y="673"/>
			<point x="428" y="640"/>
			<point x="442" y="560" type="curve"/>
			<point x="503" y="560" type="line"/>
			<point x="502" y="716" type="line"/>
			<point x="453" y="739"/>
			<point x="382" y="751"/>
			<point x="316" y="751" type="curve" smooth="yes"/>
			<point x="165" y="751"/>
			<point x="45" y="682"/>
			<point x="45" y="531" type="curve" smooth="yes"/>
			<point x="45" y="390"/>
			<point x="158" y="353"/>
			<point x="263" y="322" type="curve" smooth="yes"/>
			<point x="358" y="294"/>
			<point x="448" y="254"/>
			<point x="448" y="176" type="curve" smooth="yes"/>
			<point x="448" y="146"/>
			<point x="441" y="117"/>
			<point x="424" y="91" type="curve"/>
			<point x="393" y="73"/>
			<point x="347" y="66"/>
			<point x="302" y="66" type="curve" smooth="yes"/>
			<point x="176" y="66"/>
			<point x="118" y="111"/>
			<point x="104" y="234" type="curve"/>
			<point x="43" y="234" type="line"/>
			<point x="43" y="49" type="line"/>
			<point x="118" y="6"/>
			<point x="198" y="-16"/>
		</contour>
	</outline>
</glyph>
<glyph name="T" format="2">
	<advance width="725"/>
	<unicode hex="0054"/>
	<outline>
		<contour>
			<point x="187" y="0" type="line"/>
			<point x="547" y="0" type="line"/>
			<point x="547" y="57" type="line"/>
			<point x="512" y="57" type="line" smooth="yes"/>
			<point x="445" y="57"/>
			<point x="418" y="74"/>
			<point x="418" y="130" type="curve" smooth="yes"/>
			<point x="419" y="676" type="line"/>
			<point x="503" y="676" type="line"/>
			<point x="503" y="735" type="line"/>
			<point x="223" y="735" type="line"/>
			<point x="214" y="678" type="line"/>
			<point x="308" y="676" type="line"/>
			<point x="307" y="59" type="line"/>
			<point x="187" y="59" type="line"/>
		</contour>
		<contour>
			<point x="29" y="494" type="line"/>
			<point x="87" y="494" type="line"/>
			<point x="96" y="628"/>
			<point x="103" y="658"/>
			<point x="172" y="658" type="curve"/>
			<point x="167" y="735" type="line"/>
			<point x="31" y="735" type="line"/>
		</contour>
		<contour>
			<point x="104" y="658" type="line"/>
			<point x="322" y="658" type="line"/>
			<point x="312" y="735" type="line"/>
			<point x="104" y="735" type="line"/>
		</contour>
		<contour>
			<point x="403" y="658" type="line"/>
			<point x="621" y="658" type="line"/>
			<point x="621" y="735" type="line"/>
			<point x="413" y="735" type="line"/>
		</contour>
		<contour>
			<point x="638" y="494" type="curve"/>
			<point x="696" y="494" type="line"/>
			<point x="694" y="735" type="line"/>
			<point x="558" y="735" type="line"/>
			<point x="553" y="658" type="line"/>
			<point x="622" y="658"/>
			<point x="629" y="628"/>
		</contour>
	</outline>
</glyph>
<glyph name="U" format="2">
	<advance width="817"/>
	<unicode hex="0055"/>
	<anchor x="711" y="10" name="ogonek"/>
	<anchor x="438" y="735" name="top"/>
	<anchor x="768" y="735" name="topright"/>
	<anchor x="431" y="0" name="bottom"/>
	<outline>
		<contour>
			<point x="432" y="-15" type="curve" smooth="yes"/>
			<point x="608" y="-15"/>
			<point x="713" y="97"/>
			<point x="713" y="250" type="curve" smooth="yes"/>
			<point x="713" y="676" type="line"/>
			<point x="793" y="676" type="line"/>
			<point x="793" y="735" type="line"/>
			<point x="529" y="735" type="line"/>
			<point x="529" y="678" type="line"/>
			<point x="544" y="678" type="line" smooth="yes"/>
			<point x="606" y="678"/>
			<point x="632" y="661"/>
			<point x="632" y="605" type="curve" smooth="yes"/>
			<point x="635" y="286" type="line" smooth="yes"/>
			<point x="636" y="243"/>
			<point x="632" y="202"/>
			<point x="625" y="166" type="curve"/>
			<point x="582" y="98"/>
			<point x="514" y="77"/>
			<point x="438" y="77" type="curve" smooth="yes"/>
			<point x="304" y="77"/>
			<point x="240" y="146"/>
			<point x="240" y="294" type="curve" smooth="yes"/>
			<point x="241" y="676" type="line"/>
			<point x="333" y="676" type="line"/>
			<point x="333" y="735" type="line"/>
			<point x="41" y="735" type="line"/>
			<point x="41" y="678" type="line"/>
			<point x="103" y="678"/>
			<point x="130" y="661"/>
			<point x="130" y="605" type="curve" smooth="yes"/>
			<point x="130" y="254" type="line" smooth="yes"/>
			<point x="130" y="89"/>
			<point x="229" y="-15"/>
		</contour>
	</outline>
</glyph>
<glyph name="V" format="2">
	<advance width="759"/>
	<unicode hex="0056"/>
	<outline>
		<contour>
			<point x="108" y="588" type="curve" smooth="yes"/>
			<point x="320" y="-16" type="line"/>
			<point x="442" y="-16" type="line"/>
			<point x="686" y="678" type="line"/>
			<point x="759" y="678" type="line"/>
			<point x="759" y="735" type="line"/>
			<point x="486" y="735" type="line"/>
			<point x="486" y="680" type="line"/>
			<point x="516" y="680" type="line" smooth="yes"/>
			<point x="564" y="680"/>
			<point x="585" y="666"/>
			<point x="585" y="635" type="curve" smooth="yes"/>
			<point x="585" y="626"/>
			<point x="583" y="614"/>
			<point x="579" y="601" type="curve"/>
			<point x="402" y="66" type="line"/>
			<point x="209" y="678" type="line"/>
			<point x="300" y="678" type="line"/>
			<point x="300" y="735" type="line"/>
			<point x="0" y="735" type="line"/>
			<point x="0" y="680" type="line"/>
			<point x="63" y="680"/>
			<point x="82" y="662"/>
		</contour>
	</outline>
</glyph>
<glyph name="W" format="2">
	<advance width="1193"/>
	<unicode hex="0057"/>
	<outline>
		<contour>
			<point x="108" y="588" type="curve" smooth="yes"/>
			<point x="288" y="-16" type="line"/>
			<point x="410" y="-16" type="line"/>
			<point x="610" y="633" type="line"/>
			<point x="580" y="633" type="line"/>
			<point x="775" y="-16" type="line"/>
			<point x="900" y="-16" type="line"/>
			<point x="1120" y="678" type="line"/>
			<point x="1193" y="678" type="line"/>
			<point x="1193" y="735" type="line"/>
			<point x="900" y="735" type="line"/>
			<point x="900" y="680" type="line"/>
			<point x="950" y="680" type="line" smooth="yes"/>
			<point x="998" y="680"/>
			<point x="1019" y="666"/>
			<point x="1019" y="635" type="curve" smooth="yes"/>
			<point x="1019" y="626"/>
			<point x="1017" y="614"/>
			<point x="1013" y="601" type="curve" smooth="yes"/>
			<point x="846" y="23" type="line"/>
			<point x="883" y="23" type="line"/>
			<point x="676" y="715" type="line"/>
			<point x="562" y="715" type="line"/>
			<point x="351" y="37" type="line"/>
			<point x="385" y="36" type="line"/>
			<point x="212" y="678" type="line"/>
			<point x="318" y="678" type="line"/>
			<point x="318" y="735" type="line"/>
			<point x="0" y="735" type="line"/>
			<point x="0" y="680" type="line"/>
			<point x="63" y="680"/>
			<point x="86" y="663"/>
		</contour>
	</outline>
</glyph>
<glyph name="X" format="2">
	<advance width="812"/>
	<unicode hex="0058"/>
	<outline>
		<contour>
			<point x="456" y="0" type="line"/>
			<point x="797" y="0" type="line"/>
			<point x="797" y="57" type="line"/>
			<point x="761" y="57" type="line" smooth="yes"/>
			<point x="724" y="57"/>
			<point x="686" y="83"/>
			<point x="654" y="127" type="curve" smooth="yes"/>
			<point x="458" y="396" type="line"/>
			<point x="442" y="414" type="line"/>
			<point x="260" y="677" type="line"/>
			<point x="376" y="677" type="line"/>
			<point x="376" y="734" type="line"/>
			<point x="34" y="732" type="line"/>
			<point x="34" y="675" type="line"/>
			<point x="52" y="675" type="line" smooth="yes"/>
			<point x="96" y="675"/>
			<point x="132" y="663"/>
			<point x="163" y="620" type="curve" smooth="yes"/>
			<point x="347" y="364" type="line"/>
			<point x="363" y="342" type="line"/>
			<point x="561" y="57" type="line"/>
			<point x="456" y="57" type="line"/>
		</contour>
		<contour>
			<point x="35" y="0" type="line"/>
			<point x="337" y="1" type="line"/>
			<point x="337" y="58" type="line"/>
			<point x="287" y="58" type="line" smooth="yes"/>
			<point x="258" y="58"/>
			<point x="240" y="63"/>
			<point x="240" y="85" type="curve" smooth="yes"/>
			<point x="240" y="102"/>
			<point x="250" y="115"/>
			<point x="265" y="138" type="curve" smooth="yes"/>
			<point x="398" y="333" type="line"/>
			<point x="352" y="391" type="line"/>
			<point x="102" y="57" type="line"/>
			<point x="35" y="57" type="line"/>
		</contour>
		<contour>
			<point x="446" y="344" type="line"/>
			<point x="691" y="678" type="line"/>
			<point x="754" y="678" type="line"/>
			<point x="754" y="735" type="line"/>
			<point x="476" y="734" type="line"/>
			<point x="476" y="677" type="line"/>
			<point x="506" y="677" type="line" smooth="yes"/>
			<point x="540" y="677"/>
			<point x="553" y="668"/>
			<point x="553" y="652" type="curve" smooth="yes"/>
			<point x="553" y="638"/>
			<point x="544" y="620"/>
			<point x="529" y="597" type="curve" smooth="yes"/>
			<point x="400" y="402" type="line"/>
		</contour>
	</outline>
</glyph>
<glyph name="Y" format="2">
	<advance width="781"/>
	<unicode hex="0059"/>
	<anchor x="87" y="741" name="ogonek"/>
	<anchor x="399" y="16" name="bottom"/>
	<anchor x="389" y="751" name="top"/>
	<outline>
		<contour>
			<point x="228" y="0" type="line"/>
			<point x="541" y="0" type="line"/>
			<point x="541" y="57" type="line"/>
			<point x="530" y="57" type="line"/>
			<point x="467" y="57"/>
			<point x="437" y="73"/>
			<point x="437" y="125" type="curve" smooth="yes"/>
			<point x="437" y="273" type="line"/>
			<point x="667" y="678" type="line"/>
			<point x="733" y="678" type="line"/>
			<point x="733" y="735" type="line"/>
			<point x="465" y="735" type="line"/>
			<point x="465" y="680" type="line"/>
			<point x="497" y="680" type="line" smooth="yes"/>
			<point x="523" y="680"/>
			<point x="550" y="668"/>
			<point x="550" y="637" type="curve" smooth="yes"/>
			<point x="550" y="624"/>
			<point x="546" y="609"/>
			<point x="537" y="591" type="curve" smooth="yes"/>
			<point x="386" y="302" type="line"/>
			<point x="418" y="301" type="line"/>
			<point x="208" y="718" type="line"/>
			<point x="183" y="678" type="line"/>
			<point x="310" y="678" type="line"/>
			<point x="310" y="735" type="line"/>
			<point x="35" y="735" type="line"/>
			<point x="35" y="680" type="line"/>
			<point x="97" y="680"/>
			<point x="116" y="663"/>
			<point x="154" y="594" type="curve" smooth="yes"/>
			<point x="351" y="235" type="line"/>
			<point x="334" y="317" type="line"/>
			<point x="334" y="59" type="line"/>
			<point x="228" y="59" type="line"/>
		</contour>
	</outline>
</glyph>
<glyph name="Z" format="2">
	<advance width="640"/>
	<unicode hex="005A"/>
	<outline>
		<contour>
			<point x="41" y="0" type="line"/>
			<point x="121" y="0" type="line"/>
			<point x="593" y="650" type="line"/>
			<point x="594" y="735" type="line"/>
			<point x="520" y="735" type="line"/>
			<point x="41" y="83" type="line"/>
		</contour>
		<contour>
			<point x="51" y="0" type="line"/>
			<point x="576" y="0" type="line"/>
			<point x="576" y="68" type="line"/>
			<point x="51" y="68" type="line"/>
		</contour>
		<contour>
			<point x="406" y="68" type="curve"/>
			<point x="551" y="0" type="line"/>
			<point x="597" y="0" type="line"/>
			<point x="599" y="242" type="line"/>
			<point x="541" y="242" type="line"/>
			<point x="529" y="115"/>
			<point x="504" y="68"/>
		</contour>
		<contour>
			<point x="56" y="496" type="line"/>
			<point x="116" y="496" type="line"/>
			<point x="147" y="663" type="line"/>
			<point x="108" y="735" type="line"/>
			<point x="56" y="736" type="line"/>
		</contour>
		<contour>
			<point x="78" y="667" type="line"/>
			<point x="592" y="667" type="line"/>
			<point x="592" y="735" type="line"/>
			<point x="78" y="735" type="line"/>
		</contour>
	</outline>
</glyph>
<glyph name="a" format="2">
	<advance width="600"/>
	<unicode hex="0061"/>
	<anchor x="501" y="10" name="ogonek"/>
	<anchor x="297" y="0" name="bottom"/>
	<anchor x="271" y="540" name="top"/>
	<outline>
		<contour>
			<point x="455" y="0" type="curve" smooth="yes"/>
			<point x="488" y="0"/>
			<point x="515" y="10"/>
			<point x="562" y="38" type="curve"/>
			<point x="562" y="91" type="line"/>
			<point x="435" y="91" type="line"/>
			<point x="468" y="42" type="line"/>
			<point x="478" y="380" type="line" smooth="yes"/>
			<point x="482" y="504"/>
			<point x="407" y="557"/>
			<point x="299" y="557" type="curve" smooth="yes"/>
			<point x="215" y="557"/>
			<point x="124" y="532"/>
			<point x="69" y="492" type="curve"/>
			<point x="94" y="400" type="line"/>
			<point x="132" y="441"/>
			<point x="199" y="476"/>
			<point x="256" y="476" type="curve" smooth="yes"/>
			<point x="344" y="476"/>
			<point x="369" y="430"/>
			<point x="368" y="362" type="curve" smooth="yes"/>
			<point x="366" y="94" type="line"/>
			<point x="384" y="29"/>
			<point x="426" y="0"/>
		</contour>
		<contour>
			<point x="196" y="-13" type="curve" smooth="yes"/>
			<point x="263" y="-13"/>
			<point x="333" y="27"/>
			<point x="384" y="73" type="curve"/>
			<point x="375" y="118" type="line"/>
			<point x="324" y="97"/>
			<point x="275" y="81"/>
			<point x="234" y="81" type="curve" smooth="yes"/>
			<point x="182" y="81"/>
			<point x="146" y="107"/>
			<point x="146" y="169" type="curve" smooth="yes"/>
			<point x="146" y="186"/>
			<point x="149" y="205"/>
			<point x="156" y="224" type="curve"/>
			<point x="189" y="241"/>
			<point x="312" y="244"/>
			<point x="373" y="244" type="curve"/>
			<point x="373" y="300" type="line"/>
			<point x="328" y="305"/>
			<point x="286" y="307"/>
			<point x="237" y="307" type="curve" smooth="yes"/>
			<point x="124" y="307"/>
			<point x="41" y="255"/>
			<point x="41" y="137" type="curve" smooth="yes"/>
			<point x="41" y="49"/>
			<point x="108" y="-13"/>
		</contour>
	</outline>
</glyph>
<glyph name="b" format="2">
	<advance width="635"/>
	<unicode hex="0062"/>
	<outline>
		<contour>
			<point x="281" y="-9" type="curve" smooth="yes"/>
			<point x="476" y="-9"/>
			<point x="587" y="106"/>
			<point x="587" y="305" type="curve" smooth="yes"/>
			<point x="587" y="468"/>
			<point x="501" y="556"/>
			<point x="387" y="556" type="curve" smooth="yes"/>
			<point x="324" y="556"/>
			<point x="248" y="533"/>
			<point x="173" y="486" type="curve"/>
			<point x="182" y="436" type="line"/>
			<point x="232" y="453"/>
			<point x="276" y="462"/>
			<point x="314" y="462" type="curve" smooth="yes"/>
			<point x="414" y="462"/>
			<point x="474" y="407"/>
			<point x="474" y="279" type="curve" smooth="yes"/>
			<point x="474" y="217"/>
			<point x="467" y="166"/>
			<point x="455" y="117" type="curve"/>
			<point x="421" y="93"/>
			<point x="368" y="80"/>
			<point x="314" y="80" type="curve" smooth="yes"/>
			<point x="268" y="80"/>
			<point x="221" y="90"/>
			<point x="190" y="112" type="curve"/>
			<point x="191" y="454" type="line"/>
			<point x="185" y="477" type="line"/>
			<point x="201" y="756" type="line" smooth="yes"/>
			<point x="203" y="788"/>
			<point x="182" y="799"/>
			<point x="154" y="800" type="curve" smooth="yes"/>
			<point x="114" y="799"/>
			<point x="49" y="786"/>
			<point x="-10" y="772" type="curve"/>
			<point x="-10" y="719" type="line"/>
			<point x="137" y="719" type="line"/>
			<point x="89" y="758" type="line"/>
			<point x="89" y="192" type="line"/>
			<point x="85" y="45" type="line"/>
			<point x="153" y="8"/>
			<point x="215" y="-9"/>
		</contour>
	</outline>
</glyph>
<glyph name="c" format="2">
	<advance width="561"/>
	<unicode hex="0063"/>
	<outline>
		<contour>
			<point x="290" y="-14" type="curve" smooth="yes"/>
			<point x="368" y="-14"/>
			<point x="459" y="10"/>
			<point x="514" y="62" type="curve"/>
			<point x="487" y="107" type="line"/>
			<point x="441" y="88"/>
			<point x="389" y="72"/>
			<point x="341" y="72" type="curve" smooth="yes"/>
			<point x="217" y="72"/>
			<point x="157" y="162"/>
			<point x="157" y="274" type="curve" smooth="yes"/>
			<point x="157" y="328"/>
			<point x="170" y="387"/>
			<point x="195" y="443" type="curve"/>
			<point x="220" y="459"/>
			<point x="265" y="470"/>
			<point x="307" y="470" type="curve" smooth="yes"/>
			<point x="371" y="470"/>
			<point x="413" y="451"/>
			<point x="433" y="365" type="curve"/>
			<point x="492" y="366" type="line"/>
			<point x="492" y="525" type="line"/>
			<point x="459" y="543"/>
			<point x="383" y="555"/>
			<point x="322" y="555" type="curve" smooth="yes"/>
			<point x="157" y="555"/>
			<point x="48" y="414"/>
			<point x="48" y="241" type="curve" smooth="yes"/>
			<point x="48" y="90"/>
			<point x="135" y="-14"/>
		</contour>
	</outline>
</glyph>
<glyph name="d" format="2">
	<advance width="686"/>
	<unicode hex="0064"/>
	<outline>
		<contour>
			<point x="520" y="-13" type="curve" smooth="yes"/>
			<point x="553" y="-13"/>
			<point x="600" y="-2"/>
			<point x="647" y="33" type="curve"/>
			<point x="647" y="86" type="line"/>
			<point x="520" y="86" type="line"/>
			<point x="499" y="86" type="line"/>
			<point x="452" y="138" type="line"/>
			<point x="447" y="77" type="line"/>
			<point x="447" y="26"/>
			<point x="481" y="-13"/>
		</contour>
		<contour>
			<point x="552" y="415" type="line"/>
			<point x="552" y="757" type="line"/>
			<point x="450" y="757" type="line"/>
			<point x="450" y="431" type="line"/>
		</contour>
		<contour>
			<point x="356" y="772" type="curve"/>
			<point x="356" y="719" type="line"/>
			<point x="483" y="719" type="line"/>
			<point x="552" y="756" type="line"/>
			<point x="552" y="788"/>
			<point x="533" y="799"/>
			<point x="505" y="800" type="curve" smooth="yes"/>
			<point x="461" y="799"/>
			<point x="409" y="786"/>
		</contour>
		<contour>
			<point x="190" y="437" type="curve"/>
			<point x="226" y="454"/>
			<point x="274" y="464"/>
			<point x="322" y="464" type="curve" smooth="yes"/>
			<point x="370" y="464"/>
			<point x="418" y="453"/>
			<point x="450" y="427" type="curve"/>
			<point x="447" y="100" type="line"/>
			<point x="447" y="78" type="line"/>
			<point x="461" y="89" type="line"/>
			<point x="553" y="74" type="line"/>
			<point x="552" y="489" type="line"/>
			<point x="484" y="532"/>
			<point x="406" y="552"/>
			<point x="327" y="552" type="curve" smooth="yes"/>
			<point x="166" y="552"/>
			<point x="46" y="437"/>
			<point x="46" y="238" type="curve" smooth="yes"/>
			<point x="46" y="73"/>
			<point x="136" y="-16"/>
			<point x="242" y="-16" type="curve" smooth="yes"/>
			<point x="311" y="-16"/>
			<point x="382" y="14"/>
			<point x="465" y="69" type="curve"/>
			<point x="456" y="119" type="line"/>
			<point x="406" y="96"/>
			<point x="362" y="81"/>
			<point x="324" y="81" type="curve" smooth="yes"/>
			<point x="224" y="81"/>
			<point x="154" y="128"/>
			<point x="154" y="256" type="curve" smooth="yes"/>
			<point x="154" y="322"/>
			<point x="162" y="388"/>
		</contour>
	</outline>
</glyph>
<glyph name="e" format="2">
	<advance width="556"/>
	<unicode hex="0065"/>
	<anchor x="500" y="10" name="ogonek"/>
	<anchor x="278" y="0" name="bottom"/>
	<anchor x="292" y="540" name="top"/>
	<outline>
		<contour>
			<point x="283" y="-14" type="curve" smooth="yes"/>
			<point x="370" y="-14"/>
			<point x="455" y="10"/>
			<point x="511" y="62" type="curve"/>
			<point x="484" y="107" type="line"/>
			<point x="438" y="88"/>
			<point x="383" y="72"/>
			<point x="334" y="72" type="curve" smooth="yes"/>
			<point x="179" y="72"/>
			<point x="150" y="162"/>
			<point x="150" y="274" type="curve"/>
			<point x="139" y="250" type="line"/>
			<point x="505" y="250" type="line"/>
			<point x="512" y="273"/>
			<point x="515" y="304"/>
			<point x="515" y="337" type="curve" smooth="yes"/>
			<point x="515" y="475"/>
			<point x="442" y="556"/>
			<point x="303" y="556" type="curve" smooth="yes"/>
			<point x="178" y="556"/>
			<point x="41" y="445"/>
			<point x="41" y="241" type="curve" smooth="yes"/>
			<point x="41" y="90"/>
			<point x="118" y="-14"/>
		</contour>
		<contour>
			<point x="151" y="303" type="line"/>
			<point x="154" y="361"/>
			<point x="167" y="408"/>
			<point x="188" y="443" type="curve"/>
			<point x="212" y="459"/>
			<point x="256" y="470"/>
			<point x="298" y="470" type="curve" smooth="yes"/>
			<point x="373" y="470"/>
			<point x="414" y="435"/>
			<point x="415" y="366" type="curve" smooth="yes"/>
			<point x="415" y="351"/>
			<point x="413" y="335"/>
			<point x="412" y="319" type="curve"/>
			<point x="428" y="327" type="line"/>
			<point x="140" y="327" type="line"/>
		</contour>
	</outline>
</glyph>
<glyph name="f" format="2">
	<advance width="444"/>
	<unicode hex="0066"/>
	<outline>
		<contour>
			<point x="41" y="0" type="line"/>
			<point x="363" y="0" type="line"/>
			<point x="363" y="57" type="line"/>
			<point x="320" y="57" type="line"/>
			<point x="253" y="57"/>
			<point x="226" y="73"/>
			<point x="226" y="125" type="curve" smooth="yes"/>
			<point x="227" y="542" type="line"/>
			<point x="227" y="599"/>
			<point x="238" y="651"/>
			<point x="254" y="682" type="curve"/>
			<point x="284" y="699"/>
			<point x="322" y="708"/>
			<point x="361" y="708" type="curve" smooth="yes"/>
			<point x="390" y="708"/>
			<point x="419" y="703"/>
			<point x="448" y="695" type="curve"/>
			<point x="470" y="790" type="line"/>
			<point x="437" y="796"/>
			<point x="408" y="800"/>
			<point x="380" y="800" type="curve" smooth="yes"/>
			<point x="238" y="800"/>
			<point x="125" y="678"/>
			<point x="125" y="538" type="curve" smooth="yes"/>
			<point x="125" y="59" type="line"/>
			<point x="41" y="59" type="line"/>
		</contour>
		<contour>
			<point x="226" y="470" type="line"/>
			<point x="405" y="473" type="line"/>
			<point x="405" y="540" type="line"/>
			<point x="142" y="540" type="line"/>
			<point x="103" y="537"/>
			<point x="64" y="529"/>
			<point x="41" y="517" type="curve"/>
			<point x="41" y="472" type="line"/>
		</contour>
	</outline>
</glyph>
<glyph name="g" format="2">
	<advance width="599"/>
	<unicode hex="0067"/>
	<guideline x="-19" y="185" angle="0"/>
	<outline>
		<contour>
			<point x="283" y="-246" type="curve" smooth="yes"/>
			<point x="474" y="-246"/>
			<point x="544" y="-129"/>
			<point x="544" y="-43" type="curve" smooth="yes"/>
			<point x="544" y="58"/>
			<point x="475" y="99"/>
			<point x="384" y="99" type="curve" smooth="yes"/>
			<point x="245" y="99" type="line" smooth="yes"/>
			<point x="199" y="99"/>
			<point x="184" y="107"/>
			<point x="184" y="134" type="curve" smooth="yes"/>
			<point x="184" y="155"/>
			<point x="200" y="180"/>
			<point x="232" y="201" type="curve"/>
			<point x="172" y="212" type="line"/>
			<point x="118" y="175"/>
			<point x="78" y="122"/>
			<point x="78" y="78" type="curve" smooth="yes"/>
			<point x="78" y="46"/>
			<point x="98" y="14"/>
			<point x="144" y="11" type="curve"/>
			<point x="151" y="-1" type="line"/>
			<point x="355" y="-1" type="line" smooth="yes"/>
			<point x="423" y="-1"/>
			<point x="453" y="-19"/>
			<point x="453" y="-70" type="curve" smooth="yes"/>
			<point x="453" y="-93"/>
			<point x="446" y="-118"/>
			<point x="435" y="-155" type="curve"/>
			<point x="456" y="-106" type="line"/>
			<point x="442" y="-134"/>
			<point x="383" y="-155"/>
			<point x="289" y="-155" type="curve" smooth="yes"/>
			<point x="191" y="-155"/>
			<point x="123" y="-136"/>
			<point x="123" y="-82" type="curve" smooth="yes"/>
			<point x="123" y="-50"/>
			<point x="138" y="-25"/>
			<point x="165" y="1" type="curve"/>
			<point x="139" y="35" type="line"/>
			<point x="71" y="-6"/>
			<point x="30" y="-48"/>
			<point x="30" y="-110" type="curve" smooth="yes"/>
			<point x="30" y="-177"/>
			<point x="71" y="-246"/>
		</contour>
		<contour>
			<point x="275" y="184" type="curve" smooth="yes"/>
			<point x="418" y="184"/>
			<point x="494" y="242"/>
			<point x="494" y="370" type="curve" smooth="yes"/>
			<point x="494" y="486"/>
			<point x="435" y="556"/>
			<point x="277" y="556" type="curve" smooth="yes"/>
			<point x="145" y="556"/>
			<point x="59" y="494"/>
			<point x="59" y="370" type="curve" smooth="yes"/>
			<point x="59" y="250"/>
			<point x="127" y="184"/>
		</contour>
		<contour>
			<point x="282" y="250" type="curve" smooth="yes"/>
			<point x="210" y="250"/>
			<point x="164" y="283"/>
			<point x="164" y="370" type="curve" smooth="yes"/>
			<point x="164" y="412"/>
			<point x="172" y="450"/>
			<point x="189" y="473" type="curve"/>
			<point x="217" y="484"/>
			<point x="247" y="488"/>
			<point x="273" y="488" type="curve" smooth="yes"/>
			<point x="341" y="488"/>
			<point x="388" y="456"/>
			<point x="388" y="370" type="curve" smooth="yes"/>
			<point x="388" y="325"/>
			<point x="380" y="289"/>
			<point x="364" y="265" type="curve"/>
			<point x="334" y="255"/>
			<point x="302" y="250"/>
		</contour>
		<contour>
			<point x="376" y="530" type="curve"/>
			<point x="395" y="503" type="line"/>
			<point x="436" y="552"/>
			<point x="478" y="562"/>
			<point x="559" y="562" type="curve"/>
			<point x="559" y="652" type="line"/>
			<point x="460" y="657"/>
			<point x="412" y="624"/>
		</contour>
	</outline>
</glyph>
<glyph name="h" format="2">
	<advance width="725"/>
	<unicode hex="0068"/>
	<outline>
		<contour>
			<point x="406" y="0" type="line"/>
			<point x="687" y="0" type="line"/>
			<point x="687" y="57" type="line"/>
			<point x="619" y="57"/>
			<point x="592" y="73"/>
			<point x="592" y="125" type="curve" smooth="yes"/>
			<point x="592" y="390" type="line" smooth="yes"/>
			<point x="592" y="491"/>
			<point x="529" y="556"/>
			<point x="435" y="556" type="curve" smooth="yes"/>
			<point x="360" y="556"/>
			<point x="279" y="515"/>
			<point x="216" y="470" type="curve"/>
			<point x="225" y="430" type="line"/>
			<point x="280" y="448"/>
			<point x="342" y="462"/>
			<point x="391" y="462" type="curve" smooth="yes"/>
			<point x="461" y="462"/>
			<point x="491" y="435"/>
			<point x="491" y="374" type="curve" smooth="yes"/>
			<point x="491" y="59" type="line"/>
			<point x="406" y="59" type="line"/>
		</contour>
		<contour>
			<point x="46" y="0" type="line"/>
			<point x="325" y="0" type="line"/>
			<point x="325" y="57" type="line"/>
			<point x="258" y="57"/>
			<point x="231" y="73"/>
			<point x="231" y="125" type="curve" smooth="yes"/>
			<point x="232" y="454" type="line"/>
			<point x="226" y="467" type="line"/>
			<point x="242" y="756" type="line" smooth="yes"/>
			<point x="244" y="788"/>
			<point x="223" y="799"/>
			<point x="195" y="800" type="curve" smooth="yes"/>
			<point x="155" y="799"/>
			<point x="90" y="786"/>
			<point x="31" y="772" type="curve"/>
			<point x="31" y="719" type="line"/>
			<point x="178" y="719" type="line"/>
			<point x="130" y="758" type="line"/>
			<point x="130" y="59" type="line"/>
			<point x="46" y="59" type="line"/>
		</contour>
	</outline>
</glyph>
<glyph name="i" format="2">
	<advance width="365"/>
	<unicode hex="0069"/>
	<outline>
		<contour>
			<point x="179" y="661" type="curve" smooth="yes"/>
			<point x="224" y="661"/>
			<point x="244" y="680"/>
			<point x="244" y="727" type="curve" smooth="yes"/>
			<point x="244" y="775"/>
			<point x="224" y="794"/>
			<point x="179" y="794" type="curve" smooth="yes"/>
			<point x="133" y="794"/>
			<point x="113" y="775"/>
			<point x="113" y="727" type="curve" smooth="yes"/>
			<point x="113" y="680"/>
			<point x="133" y="661"/>
		</contour>
		<component base="dotlessi"/>
	</outline>
</glyph>
<glyph name="j" format="2">
	<advance width="308"/>
	<unicode hex="006A"/>
	<outline>
		<contour>
			<point x="-7" y="-204" type="curve"/>
			<point x="9" y="-242" type="line"/>
			<point x="115" y="-217"/>
			<point x="225" y="-112"/>
			<point x="225" y="52" type="curve" smooth="yes"/>
			<point x="225" y="502" type="line"/>
			<point x="225" y="534"/>
			<point x="206" y="545"/>
			<point x="178" y="546" type="curve" smooth="yes"/>
			<point x="134" y="545"/>
			<point x="83" y="532"/>
			<point x="29" y="518" type="curve"/>
			<point x="29" y="465" type="line"/>
			<point x="156" y="465" type="line"/>
			<point x="123" y="504" type="line"/>
			<point x="123" y="45" type="line" smooth="yes"/>
			<point x="123" y="-74"/>
			<point x="88" y="-159"/>
		</contour>
		<contour>
			<point x="171" y="661" type="curve" smooth="yes"/>
			<point x="216" y="661"/>
			<point x="236" y="680"/>
			<point x="236" y="727" type="curve" smooth="yes"/>
			<point x="236" y="775"/>
			<point x="216" y="794"/>
			<point x="171" y="794" type="curve" smooth="yes"/>
			<point x="125" y="794"/>
			<point x="105" y="775"/>
			<point x="105" y="727" type="curve" smooth="yes"/>
			<point x="105" y="680"/>
			<point x="125" y="661"/>
		</contour>
	</outline>
</glyph>
<glyph name="k" format="2">
	<advance width="635"/>
	<unicode hex="006B"/>
	<guideline x="-1" y="-14" angle="0"/>
	<outline>
		<contour>
			<point x="41" y="0" type="line"/>
			<point x="307" y="0" type="line"/>
			<point x="307" y="57" type="line"/>
			<point x="255" y="57"/>
			<point x="228" y="74"/>
			<point x="228" y="130" type="curve" smooth="yes"/>
			<point x="228" y="281" type="line"/>
			<point x="227" y="293"/>
			<point x="222" y="316"/>
			<point x="222" y="328" type="curve"/>
			<point x="231" y="756" type="line" smooth="yes"/>
			<point x="232" y="788"/>
			<point x="212" y="799"/>
			<point x="184" y="800" type="curve" smooth="yes"/>
			<point x="140" y="799"/>
			<point x="83" y="786"/>
			<point x="31" y="772" type="curve"/>
			<point x="31" y="719" type="line"/>
			<point x="158" y="719" type="line"/>
			<point x="125" y="758" type="line"/>
			<point x="125" y="59" type="line"/>
			<point x="41" y="59" type="line"/>
		</contour>
		<contour>
			<point x="207" y="265" type="line"/>
			<point x="321" y="265" type="line"/>
			<point x="320" y="333" type="line"/>
			<point x="207" y="333" type="line"/>
		</contour>
		<contour>
			<point x="530" y="-14" type="curve" smooth="yes"/>
			<point x="566" y="-14"/>
			<point x="602" y="4"/>
			<point x="631" y="38" type="curve"/>
			<point x="614" y="80" type="line"/>
			<point x="561" y="68" type="line"/>
			<point x="501" y="126"/>
			<point x="430" y="220"/>
			<point x="355" y="328" type="curve"/>
			<point x="284" y="285" type="line"/>
			<point x="421" y="56" type="line" smooth="yes"/>
			<point x="449" y="9"/>
			<point x="490" y="-14"/>
		</contour>
		<contour>
			<point x="342" y="276" type="line"/>
			<point x="458" y="403" type="line" smooth="yes"/>
			<point x="501" y="450"/>
			<point x="530" y="483"/>
			<point x="561" y="483" type="curve" smooth="yes"/>
			<point x="597" y="483" type="line"/>
			<point x="597" y="540" type="line"/>
			<point x="348" y="540" type="line"/>
			<point x="348" y="480" type="line"/>
			<point x="429" y="480" type="line"/>
			<point x="290" y="310" type="line"/>
		</contour>
	</outline>
</glyph>
<glyph name="l" format="2">
	<advance width="353"/>
	<unicode hex="006C"/>
	<outline>
		<contour>
			<point x="41" y="0" type="line"/>
			<point x="322" y="0" type="line"/>
			<point x="322" y="57" type="line"/>
			<point x="255" y="57"/>
			<point x="229" y="74"/>
			<point x="228" y="130" type="curve" smooth="yes"/>
			<point x="221" y="430" type="line"/>
			<point x="229" y="756" type="line" smooth="yes"/>
			<point x="230" y="788"/>
			<point x="210" y="799"/>
			<point x="182" y="800" type="curve" smooth="yes"/>
			<point x="139" y="799"/>
			<point x="83" y="786"/>
			<point x="31" y="772" type="curve"/>
			<point x="31" y="719" type="line"/>
			<point x="158" y="719" type="line"/>
			<point x="125" y="758" type="line"/>
			<point x="125" y="59" type="line"/>
			<point x="41" y="59" type="line"/>
		</contour>
	</outline>
</glyph>
<glyph name="m" format="2">
	<advance width="1065"/>
	<unicode hex="006D"/>
	<outline>
		<contour>
			<point x="753" y="0" type="line"/>
			<point x="1034" y="0" type="line"/>
			<point x="1034" y="57" type="line"/>
			<point x="966" y="57"/>
			<point x="939" y="73"/>
			<point x="939" y="125" type="curve" smooth="yes"/>
			<point x="939" y="390" type="line" smooth="yes"/>
			<point x="939" y="491"/>
			<point x="876" y="556"/>
			<point x="782" y="556" type="curve" smooth="yes"/>
			<point x="707" y="556"/>
			<point x="626" y="515"/>
			<point x="563" y="470" type="curve"/>
			<point x="572" y="430" type="line"/>
			<point x="627" y="448"/>
			<point x="689" y="462"/>
			<point x="738" y="462" type="curve" smooth="yes"/>
			<point x="808" y="462"/>
			<point x="838" y="435"/>
			<point x="838" y="374" type="curve" smooth="yes"/>
			<point x="838" y="59" type="line"/>
			<point x="753" y="59" type="line"/>
		</contour>
		<contour>
			<point x="41" y="0" type="line"/>
			<point x="321" y="0" type="line"/>
			<point x="320" y="57" type="line"/>
			<point x="253" y="57"/>
			<point x="226" y="73"/>
			<point x="226" y="125" type="curve" smooth="yes"/>
			<point x="227" y="510" type="line" smooth="yes"/>
			<point x="227" y="542"/>
			<point x="208" y="553"/>
			<point x="180" y="554" type="curve"/>
			<point x="136" y="553"/>
			<point x="84" y="540"/>
			<point x="31" y="526" type="curve"/>
			<point x="31" y="473" type="line"/>
			<point x="158" y="473" type="line"/>
			<point x="125" y="512" type="line"/>
			<point x="125" y="59" type="line"/>
			<point x="41" y="59" type="line"/>
		</contour>
		<contour>
			<point x="409" y="0" type="line"/>
			<point x="680" y="0" type="line"/>
			<point x="680" y="57" type="line"/>
			<point x="612" y="57"/>
			<point x="585" y="73"/>
			<point x="585" y="125" type="curve" smooth="yes"/>
			<point x="585" y="440" type="line"/>
			<point x="578" y="457" type="line"/>
			<point x="559" y="519"/>
			<point x="500" y="556"/>
			<point x="428" y="556" type="curve" smooth="yes"/>
			<point x="353" y="556"/>
			<point x="272" y="515"/>
			<point x="209" y="470" type="curve"/>
			<point x="218" y="430" type="line"/>
			<point x="273" y="448"/>
			<point x="335" y="462"/>
			<point x="384" y="462" type="curve" smooth="yes"/>
			<point x="454" y="462"/>
			<point x="484" y="435"/>
			<point x="484" y="374" type="curve" smooth="yes"/>
			<point x="484" y="59" type="line"/>
			<point x="409" y="59" type="line"/>
		</contour>
	</outline>
</glyph>
<glyph name="n" format="2">
	<advance width="725"/>
	<unicode hex="006E"/>
	<guideline x="160" y="247" angle="90"/>
	<anchor x="363" y="540" name="top"/>
	<anchor x="363" y="0" name="bottom"/>
	<outline>
		<contour>
			<point x="406" y="0" type="line"/>
			<point x="687" y="0" type="line"/>
			<point x="687" y="57" type="line"/>
			<point x="619" y="57"/>
			<point x="592" y="73"/>
			<point x="592" y="125" type="curve" smooth="yes"/>
			<point x="592" y="390" type="line" smooth="yes"/>
			<point x="592" y="491"/>
			<point x="530" y="556"/>
			<point x="435" y="556" type="curve" smooth="yes"/>
			<point x="360" y="556"/>
			<point x="279" y="515"/>
			<point x="216" y="470" type="curve"/>
			<point x="225" y="430" type="line"/>
			<point x="280" y="448"/>
			<point x="342" y="462"/>
			<point x="391" y="462" type="curve" smooth="yes"/>
			<point x="461" y="462"/>
			<point x="491" y="435"/>
			<point x="491" y="374" type="curve" smooth="yes"/>
			<point x="491" y="59" type="line"/>
			<point x="406" y="59" type="line"/>
		</contour>
		<contour>
			<point x="48" y="0" type="line"/>
			<point x="328" y="0" type="line"/>
			<point x="327" y="57" type="line"/>
			<point x="260" y="57"/>
			<point x="233" y="73"/>
			<point x="233" y="125" type="curve" smooth="yes"/>
			<point x="234" y="510" type="line" smooth="yes"/>
			<point x="234" y="542"/>
			<point x="215" y="553"/>
			<point x="187" y="554" type="curve" smooth="yes"/>
			<point x="143" y="553"/>
			<point x="91" y="540"/>
			<point x="38" y="526" type="curve"/>
			<point x="38" y="473" type="line"/>
			<point x="165" y="473" type="line"/>
			<point x="132" y="512" type="line"/>
			<point x="132" y="59" type="line"/>
			<point x="48" y="59" type="line"/>
		</contour>
	</outline>
</glyph>
<glyph name="o" format="2">
	<advance width="634"/>
	<unicode hex="006F"/>
	<anchor x="317" y="0" name="bottom"/>
	<anchor x="571" y="10" name="ogonek"/>
	<anchor x="317" y="540" name="top"/>
	<anchor x="614" y="540" name="topright"/>
	<anchor x="317" y="270" name="center"/>
	<outline>
		<contour>
			<point x="315" y="-14" type="curve" smooth="yes"/>
			<point x="479" y="-14"/>
			<point x="586" y="91"/>
			<point x="586" y="271" type="curve" smooth="yes"/>
			<point x="586" y="440"/>
			<point x="500" y="556"/>
			<point x="319" y="556" type="curve" smooth="yes"/>
			<point x="155" y="556"/>
			<point x="48" y="451"/>
			<point x="48" y="271" type="curve" smooth="yes"/>
			<point x="48" y="102"/>
			<point x="133" y="-14"/>
		</contour>
		<contour>
			<point x="324" y="72" type="curve" smooth="yes"/>
			<point x="219" y="72"/>
			<point x="157" y="127"/>
			<point x="157" y="271" type="curve" smooth="yes"/>
			<point x="157" y="346"/>
			<point x="167" y="405"/>
			<point x="195" y="446" type="curve"/>
			<point x="240" y="464"/>
			<point x="278" y="470"/>
			<point x="310" y="470" type="curve" smooth="yes"/>
			<point x="415" y="470"/>
			<point x="477" y="415"/>
			<point x="477" y="271" type="curve" smooth="yes"/>
			<point x="477" y="197"/>
			<point x="466" y="138"/>
			<point x="439" y="97" type="curve"/>
			<point x="394" y="78"/>
			<point x="355" y="72"/>
		</contour>
	</outline>
</glyph>
<glyph name="p" format="2">
	<advance width="692"/>
	<unicode hex="0070"/>
	<outline>
		<contour>
			<point x="371" y="-8" type="curve" smooth="yes"/>
			<point x="528" y="-8"/>
			<point x="646" y="106"/>
			<point x="646" y="305" type="curve" smooth="yes"/>
			<point x="646" y="468"/>
			<point x="555" y="556"/>
			<point x="441" y="556" type="curve" smooth="yes"/>
			<point x="378" y="556"/>
			<point x="302" y="530"/>
			<point x="227" y="466" type="curve"/>
			<point x="236" y="416" type="line"/>
			<point x="287" y="450"/>
			<point x="333" y="467"/>
			<point x="383" y="467" type="curve" smooth="yes"/>
			<point x="500" y="467"/>
			<point x="535" y="391"/>
			<point x="535" y="263" type="curve" smooth="yes"/>
			<point x="535" y="216"/>
			<point x="528" y="165"/>
			<point x="515" y="115" type="curve"/>
			<point x="477" y="93"/>
			<point x="431" y="82"/>
			<point x="384" y="82" type="curve" smooth="yes"/>
			<point x="316" y="82"/>
			<point x="279" y="104"/>
			<point x="245" y="130" type="curve"/>
			<point x="177" y="76" type="line"/>
			<point x="213" y="37"/>
			<point x="274" y="-8"/>
		</contour>
		<contour>
			<point x="57" y="-230" type="line"/>
			<point x="364" y="-230" type="line"/>
			<point x="364" y="-173" type="line"/>
			<point x="316" y="-173" type="line" smooth="yes"/>
			<point x="255" y="-173"/>
			<point x="231" y="-143"/>
			<point x="231" y="-95" type="curve" smooth="yes"/>
			<point x="231" y="43" type="line"/>
			<point x="245" y="61" type="line"/>
			<point x="245" y="511" type="line"/>
			<point x="143" y="513" type="line"/>
			<point x="142" y="-202" type="line"/>
			<point x="151" y="-171" type="line"/>
			<point x="57" y="-171" type="line"/>
		</contour>
		<contour>
			<point x="49" y="527" type="curve"/>
			<point x="49" y="474" type="line"/>
			<point x="176" y="474" type="line"/>
			<point x="245" y="511" type="line"/>
			<point x="245" y="543"/>
			<point x="226" y="554"/>
			<point x="198" y="555" type="curve" smooth="yes"/>
			<point x="154" y="554"/>
			<point x="102" y="541"/>
		</contour>
	</outline>
</glyph>
<glyph name="q" format="2">
	<advance width="639"/>
	<unicode hex="0071"/>
	<outline>
		<contour>
			<point x="340" y="-230" type="line"/>
			<point x="639" y="-230" type="line"/>
			<point x="639" y="-173" type="line"/>
			<point x="572" y="-173"/>
			<point x="545" y="-157"/>
			<point x="545" y="-105" type="curve" smooth="yes"/>
			<point x="545" y="248" type="line"/>
			<point x="550" y="502" type="line"/>
			<point x="494" y="531"/>
			<point x="424" y="556"/>
			<point x="360" y="556" type="curve" smooth="yes"/>
			<point x="165" y="556"/>
			<point x="48" y="441"/>
			<point x="48" y="242" type="curve" smooth="yes"/>
			<point x="48" y="74"/>
			<point x="134" y="-16"/>
			<point x="248" y="-16" type="curve" smooth="yes"/>
			<point x="311" y="-16"/>
			<point x="388" y="13"/>
			<point x="462" y="72" type="curve"/>
			<point x="453" y="116" type="line"/>
			<point x="402" y="96"/>
			<point x="355" y="85"/>
			<point x="316" y="85" type="curve" smooth="yes"/>
			<point x="200" y="85"/>
			<point x="159" y="170"/>
			<point x="159" y="277" type="curve" smooth="yes"/>
			<point x="159" y="328"/>
			<point x="164" y="387"/>
			<point x="196" y="440" type="curve"/>
			<point x="228" y="456"/>
			<point x="277" y="467"/>
			<point x="322" y="467" type="curve" smooth="yes"/>
			<point x="376" y="467"/>
			<point x="414" y="458"/>
			<point x="445" y="435" type="curve"/>
			<point x="444" y="93" type="line"/>
			<point x="449" y="63" type="line"/>
			<point x="443" y="-202" type="line"/>
			<point x="454" y="-171" type="line"/>
			<point x="340" y="-171" type="line"/>
		</contour>
	</outline>
</glyph>
<glyph name="r" format="2">
	<advance width="448"/>
	<unicode hex="0072"/>
	<outline>
		<contour>
			<point x="41" y="0" type="line"/>
			<point x="321" y="0" type="line"/>
			<point x="320" y="57" type="line"/>
			<point x="253" y="57"/>
			<point x="226" y="73"/>
			<point x="226" y="125" type="curve" smooth="yes"/>
			<point x="227" y="510" type="line" smooth="yes"/>
			<point x="227" y="542"/>
			<point x="208" y="553"/>
			<point x="180" y="554" type="curve"/>
			<point x="136" y="553"/>
			<point x="84" y="540"/>
			<point x="31" y="526" type="curve"/>
			<point x="31" y="473" type="line"/>
			<point x="158" y="473" type="line"/>
			<point x="125" y="512" type="line"/>
			<point x="125" y="59" type="line"/>
			<point x="41" y="59" type="line"/>
		</contour>
		<contour>
			<point x="202" y="374" type="curve"/>
			<point x="218" y="350" type="line"/>
			<point x="246" y="426"/>
			<point x="286" y="446"/>
			<point x="341" y="446" type="curve" smooth="yes"/>
			<point x="375" y="446"/>
			<point x="396" y="438"/>
			<point x="424" y="430" type="curve"/>
			<point x="438" y="547" type="line"/>
			<point x="424" y="550"/>
			<point x="404" y="554"/>
			<point x="373" y="554" type="curve" smooth="yes"/>
			<point x="292" y="554"/>
			<point x="224" y="477"/>
		</contour>
	</outline>
</glyph>
<glyph name="s" format="2">
	<advance width="506"/>
	<unicode hex="0073"/>
	<guideline x="7" y="-14" angle="0"/>
	<outline>
		<contour>
			<point x="248" y="-13" type="curve" smooth="yes"/>
			<point x="372" y="-13"/>
			<point x="458" y="46"/>
			<point x="458" y="162" type="curve" smooth="yes"/>
			<point x="458" y="274"/>
			<point x="359" y="303"/>
			<point x="273" y="323" type="curve" smooth="yes"/>
			<point x="206" y="339"/>
			<point x="146" y="356"/>
			<point x="146" y="408" type="curve" smooth="yes"/>
			<point x="146" y="440"/>
			<point x="158" y="469"/>
			<point x="175" y="488" type="curve"/>
			<point x="143" y="462" type="line"/>
			<point x="170" y="475"/>
			<point x="213" y="485"/>
			<point x="255" y="485" type="curve" smooth="yes"/>
			<point x="325" y="485"/>
			<point x="360" y="456"/>
			<point x="372" y="384" type="curve"/>
			<point x="429" y="384" type="line"/>
			<point x="429" y="525" type="line"/>
			<point x="381" y="544"/>
			<point x="323" y="556"/>
			<point x="265" y="556" type="curve" smooth="yes"/>
			<point x="154" y="556"/>
			<point x="59" y="491"/>
			<point x="59" y="382" type="curve" smooth="yes"/>
			<point x="59" y="266"/>
			<point x="145" y="244"/>
			<point x="238" y="224" type="curve" smooth="yes"/>
			<point x="304" y="210"/>
			<point x="363" y="194"/>
			<point x="363" y="137" type="curve" smooth="yes"/>
			<point x="363" y="117"/>
			<point x="356" y="96"/>
			<point x="346" y="78" type="curve"/>
			<point x="326" y="65"/>
			<point x="289" y="57"/>
			<point x="252" y="57" type="curve" smooth="yes"/>
			<point x="168" y="57"/>
			<point x="115" y="93"/>
			<point x="108" y="183" type="curve"/>
			<point x="48" y="183" type="line"/>
			<point x="48" y="53" type="line"/>
			<point x="84" y="17"/>
			<point x="146" y="-13"/>
		</contour>
	</outline>
</glyph>
<glyph name="t" format="2">
	<advance width="423"/>
	<unicode hex="0074"/>
	<outline>
		<contour>
			<point x="256" y="-14" type="curve" smooth="yes"/>
			<point x="304" y="-14"/>
			<point x="351" y="0"/>
			<point x="398" y="32" type="curve"/>
			<point x="374" y="74" type="line"/>
			<point x="353" y="70"/>
			<point x="328" y="66"/>
			<point x="307" y="66" type="curve" smooth="yes"/>
			<point x="240" y="66"/>
			<point x="215" y="106"/>
			<point x="214" y="151" type="curve" smooth="yes"/>
			<point x="208" y="505" type="line"/>
			<point x="208" y="668" type="line"/>
			<point x="144" y="668" type="line"/>
			<point x="107" y="540" type="line"/>
			<point x="107" y="153" type="line" smooth="yes"/>
			<point x="107" y="21"/>
			<point x="192" y="-14"/>
		</contour>
		<contour>
			<point x="193" y="470" type="line"/>
			<point x="368" y="474" type="line"/>
			<point x="368" y="541" type="line"/>
			<point x="117" y="540" type="line"/>
			<point x="78" y="538"/>
			<point x="40" y="529"/>
			<point x="14" y="518" type="curve"/>
			<point x="14" y="473" type="line"/>
		</contour>
	</outline>
</glyph>
<glyph name="u" format="2">
	<advance width="689"/>
	<unicode hex="0075"/>
	<anchor x="622" y="10" name="ogonek"/>
	<anchor x="325" y="540" name="top"/>
	<anchor x="556" y="510" name="topright"/>
	<anchor x="346" y="0" name="bottom"/>
	<outline>
		<contour>
			<point x="279" y="-16" type="curve" smooth="yes"/>
			<point x="337" y="-16"/>
			<point x="405" y="21"/>
			<point x="473" y="74" type="curve"/>
			<point x="464" y="114" type="line"/>
			<point x="407" y="96"/>
			<point x="360" y="84"/>
			<point x="322" y="84" type="curve" smooth="yes"/>
			<point x="251" y="84"/>
			<point x="221" y="111"/>
			<point x="221" y="190" type="curve" smooth="yes"/>
			<point x="221" y="522" type="line" smooth="yes"/>
			<point x="221" y="539"/>
			<point x="202" y="545"/>
			<point x="174" y="546" type="curve" smooth="yes"/>
			<point x="128" y="545"/>
			<point x="76" y="532"/>
			<point x="20" y="518" type="curve"/>
			<point x="20" y="465" type="line"/>
			<point x="153" y="465" type="line"/>
			<point x="120" y="524" type="line"/>
			<point x="120" y="160" type="line" smooth="yes"/>
			<point x="120" y="33"/>
			<point x="187" y="-16"/>
		</contour>
		<contour>
			<point x="544" y="0" type="curve" smooth="yes"/>
			<point x="577" y="0"/>
			<point x="604" y="10"/>
			<point x="651" y="38" type="curve"/>
			<point x="651" y="91" type="line"/>
			<point x="524" y="91" type="line"/>
			<point x="557" y="42" type="line"/>
			<point x="557" y="502" type="line" smooth="yes"/>
			<point x="557" y="534"/>
			<point x="538" y="545"/>
			<point x="510" y="546" type="curve" smooth="yes"/>
			<point x="464" y="545"/>
			<point x="412" y="532"/>
			<point x="356" y="518" type="curve"/>
			<point x="356" y="465" type="line"/>
			<point x="489" y="465" type="line"/>
			<point x="456" y="524" type="line"/>
			<point x="455" y="94" type="line"/>
			<point x="473" y="29"/>
			<point x="515" y="0"/>
		</contour>
	</outline>
</glyph>
<glyph name="v" format="2">
	<advance width="611"/>
	<unicode hex="0076"/>
	<guideline x="21" y="-33" angle="0"/>
	<outline>
		<contour>
			<point x="105" y="393" type="curve" smooth="yes"/>
			<point x="259" y="0" type="line"/>
			<point x="352" y="0" type="line"/>
			<point x="555" y="483" type="line"/>
			<point x="611" y="483" type="line"/>
			<point x="611" y="540" type="line"/>
			<point x="378" y="540" type="line"/>
			<point x="378" y="485" type="line"/>
			<point x="426" y="485"/>
			<point x="448" y="469"/>
			<point x="448" y="440" type="curve" smooth="yes"/>
			<point x="448" y="430"/>
			<point x="446" y="419"/>
			<point x="441" y="406" type="curve" smooth="yes"/>
			<point x="305" y="58" type="line"/>
			<point x="340" y="58" type="line"/>
			<point x="190" y="483" type="line"/>
			<point x="267" y="483" type="line"/>
			<point x="267" y="540" type="line"/>
			<point x="0" y="540" type="line"/>
			<point x="0" y="485" type="line"/>
			<point x="60" y="485"/>
			<point x="76" y="466"/>
		</contour>
	</outline>
</glyph>
<glyph name="w" format="2">
	<advance width="931"/>
	<unicode hex="0077"/>
	<outline>
		<contour>
			<point x="108" y="393" type="curve" smooth="yes"/>
			<point x="235" y="0" type="line"/>
			<point x="329" y="0" type="line"/>
			<point x="486" y="442" type="line"/>
			<point x="453" y="442" type="line"/>
			<point x="601" y="0" type="line"/>
			<point x="698" y="0" type="line"/>
			<point x="875" y="483" type="line"/>
			<point x="931" y="483" type="line"/>
			<point x="931" y="540" type="line"/>
			<point x="698" y="540" type="line"/>
			<point x="698" y="485" type="line"/>
			<point x="746" y="485"/>
			<point x="768" y="469"/>
			<point x="768" y="440" type="curve" smooth="yes"/>
			<point x="768" y="430"/>
			<point x="765" y="419"/>
			<point x="761" y="406" type="curve" smooth="yes"/>
			<point x="654" y="58" type="line"/>
			<point x="685" y="58" type="line"/>
			<point x="533" y="530" type="line"/>
			<point x="444" y="530" type="line"/>
			<point x="282" y="59" type="line"/>
			<point x="314" y="58" type="line"/>
			<point x="192" y="483" type="line"/>
			<point x="270" y="483" type="line"/>
			<point x="270" y="540" type="line"/>
			<point x="0" y="540" type="line"/>
			<point x="0" y="485" type="line"/>
			<point x="63" y="485"/>
			<point x="84" y="468"/>
		</contour>
	</outline>
</glyph>
<glyph name="x" format="2">
	<advance width="634"/>
	<unicode hex="0078"/>
	<guideline x="375" y="485" angle="0"/>
	<outline>
		<contour>
			<point x="347" y="0" type="line"/>
			<point x="610" y="0" type="line"/>
			<point x="610" y="53" type="line"/>
			<point x="581" y="53"/>
			<point x="547" y="60"/>
			<point x="518" y="96" type="curve" smooth="yes"/>
			<point x="360" y="292" type="line"/>
			<point x="342" y="314" type="line"/>
			<point x="222" y="485" type="line"/>
			<point x="289" y="485" type="line"/>
			<point x="289" y="540" type="line"/>
			<point x="33" y="540" type="line"/>
			<point x="33" y="487" type="line"/>
			<point x="66" y="487"/>
			<point x="89" y="481"/>
			<point x="108" y="457" type="curve" smooth="yes"/>
			<point x="265" y="260" type="line"/>
			<point x="285" y="236" type="line"/>
			<point x="413" y="55" type="line"/>
			<point x="347" y="55" type="line"/>
		</contour>
		<contour>
			<point x="24" y="0" type="line"/>
			<point x="265" y="0" type="line"/>
			<point x="265" y="55" type="line"/>
			<point x="236" y="55" type="line" smooth="yes"/>
			<point x="214" y="55"/>
			<point x="202" y="66"/>
			<point x="202" y="80" type="curve" smooth="yes"/>
			<point x="202" y="87"/>
			<point x="205" y="95"/>
			<point x="211" y="103" type="curve" smooth="yes"/>
			<point x="320" y="244" type="line"/>
			<point x="275" y="288" type="line"/>
			<point x="86" y="56" type="line"/>
			<point x="24" y="56" type="line"/>
		</contour>
		<contour>
			<point x="368" y="268" type="line"/>
			<point x="546" y="485" type="line"/>
			<point x="600" y="485" type="line"/>
			<point x="600" y="540" type="line"/>
			<point x="368" y="540" type="line"/>
			<point x="368" y="485" type="line"/>
			<point x="385" y="485" type="line" smooth="yes"/>
			<point x="409" y="485"/>
			<point x="424" y="476"/>
			<point x="424" y="460" type="curve" smooth="yes"/>
			<point x="424" y="452"/>
			<point x="419" y="441"/>
			<point x="410" y="429" type="curve" smooth="yes"/>
			<point x="320" y="308" type="line"/>
		</contour>
	</outline>
</glyph>
<glyph name="y" format="2">
	<advance width="629"/>
	<unicode hex="0079"/>
	<outline>
		<contour>
			<point x="28" y="-130" type="curve"/>
			<point x="10" y="-223" type="line"/>
			<point x="41" y="-232"/>
			<point x="69" y="-235"/>
			<point x="94" y="-235" type="curve" smooth="yes"/>
			<point x="225" y="-235"/>
			<point x="279" y="-151"/>
			<point x="362" y="41" type="curve" smooth="yes"/>
			<point x="553" y="483" type="line"/>
			<point x="609" y="483" type="line"/>
			<point x="607" y="540" type="line"/>
			<point x="374" y="540" type="line"/>
			<point x="376" y="485" type="line"/>
			<point x="423" y="485"/>
			<point x="449" y="468"/>
			<point x="449" y="437" type="curve" smooth="yes"/>
			<point x="449" y="428"/>
			<point x="447" y="418"/>
			<point x="442" y="406" type="curve" smooth="yes"/>
			<point x="298" y="48" type="line"/>
			<point x="352" y="59" type="line"/>
			<point x="194" y="483" type="line"/>
			<point x="269" y="483" type="line"/>
			<point x="269" y="540" type="line"/>
			<point x="11" y="540" type="line"/>
			<point x="10" y="485" type="line"/>
			<point x="63" y="485"/>
			<point x="79" y="468"/>
			<point x="110" y="393" type="curve" smooth="yes"/>
			<point x="288" y="-41" type="line"/>
			<point x="283" y="32" type="line"/>
			<point x="241" y="-87"/>
			<point x="188" y="-138"/>
			<point x="92" y="-138" type="curve" smooth="yes"/>
			<point x="72" y="-138"/>
			<point x="51" y="-135"/>
		</contour>
	</outline>
</glyph>
<glyph name="z" format="2">
	<advance width="554"/>
	<unicode hex="007A"/>
	<outline>
		<contour>
			<point x="62" y="0" type="line"/>
			<point x="139" y="0" type="line"/>
			<point x="488" y="476" type="line"/>
			<point x="489" y="540" type="line"/>
			<point x="421" y="540" type="line"/>
			<point x="62" y="60" type="line"/>
		</contour>
		<contour>
			<point x="70" y="0" type="line"/>
			<point x="501" y="0" type="line"/>
			<point x="501" y="182" type="line"/>
			<point x="449" y="182" type="line"/>
			<point x="449" y="114"/>
			<point x="421" y="68"/>
			<point x="369" y="67" type="curve" smooth="yes"/>
			<point x="70" y="64" type="line"/>
		</contour>
		<contour>
			<point x="74" y="336" type="line"/>
			<point x="131" y="336" type="line"/>
			<point x="155" y="471" type="line"/>
			<point x="117" y="539" type="line"/>
			<point x="74" y="540" type="line"/>
		</contour>
		<contour>
			<point x="472" y="469" type="line"/>
			<point x="472" y="540" type="line"/>
			<point x="92" y="540" type="line"/>
			<point x="95" y="471" type="line"/>
		</contour>
	</outline>
</glyph>
<glyph name="germandbls" format="2">
	<advance width="717"/>
	<unicode hex="00DF"/>
	<outline>
		<contour>
			<point x="226" y="0" type="line"/>
			<point x="227" y="502" type="line" smooth="yes"/>
			<point x="227" y="575"/>
			<point x="238" y="642"/>
			<point x="254" y="682" type="curve"/>
			<point x="284" y="699"/>
			<point x="322" y="708"/>
			<point x="361" y="708" type="curve" smooth="yes"/>
			<point x="469" y="708"/>
			<point x="495" y="663"/>
			<point x="495" y="594" type="curve" smooth="yes"/>
			<point x="495" y="574"/>
			<point x="494" y="551"/>
			<point x="493" y="527" type="curve"/>
			<point x="515" y="563" type="line"/>
			<point x="410" y="523"/>
			<point x="358" y="484"/>
			<point x="358" y="402" type="curve" smooth="yes"/>
			<point x="358" y="313"/>
			<point x="414" y="280"/>
			<point x="482" y="250" type="curve" smooth="yes"/>
			<point x="541" y="224"/>
			<point x="574" y="200"/>
			<point x="574" y="137" type="curve" smooth="yes"/>
			<point x="574" y="116"/>
			<point x="567" y="95"/>
			<point x="557" y="77" type="curve"/>
			<point x="539" y="65"/>
			<point x="512" y="57"/>
			<point x="483" y="57" type="curve" smooth="yes"/>
			<point x="413" y="57"/>
			<point x="369" y="93"/>
			<point x="363" y="183" type="curve"/>
			<point x="305" y="183" type="line"/>
			<point x="305" y="53" type="line"/>
			<point x="334" y="17"/>
			<point x="385" y="-13"/>
			<point x="469" y="-13" type="curve" smooth="yes"/>
			<point x="573" y="-13"/>
			<point x="669" y="46"/>
			<point x="669" y="162" type="curve" smooth="yes"/>
			<point x="669" y="265"/>
			<point x="605" y="305"/>
			<point x="547" y="331" type="curve" smooth="yes"/>
			<point x="478" y="362"/>
			<point x="447" y="378"/>
			<point x="447" y="418" type="curve" smooth="yes"/>
			<point x="447" y="469"/>
			<point x="498" y="500"/>
			<point x="567" y="518" type="curve"/>
			<point x="577" y="559"/>
			<point x="582" y="596"/>
			<point x="582" y="629" type="curve" smooth="yes"/>
			<point x="582" y="738"/>
			<point x="516" y="800"/>
			<point x="387" y="800" type="curve" smooth="yes"/>
			<point x="239" y="800"/>
			<point x="125" y="678"/>
			<point x="125" y="538" type="curve" smooth="yes"/>
			<point x="125" y="59" type="line"/>
			<point x="41" y="59" type="line"/>
			<point x="41" y="0" type="line"/>
		</contour>
		<contour>
			<point x="41" y="517" type="curve"/>
			<point x="41" y="472" type="line"/>
			<point x="205" y="473" type="line"/>
			<point x="205" y="540" type="line"/>
			<point x="142" y="540" type="line"/>
			<point x="103" y="537"/>
			<point x="64" y="529"/>
		</contour>
	</outline>
</glyph>
<glyph name="iacute" format="2">
	<advance width="364"/>
	<unicode hex="00ED"/>
	<anchor x="182" y="816" name="top"/>
	<outline>
		<contour>
			<point x="117" y="628" type="line"/>
			<point x="250" y="667" type="line" smooth="yes"/>
			<point x="292" y="679"/>
			<point x="310" y="696"/>
			<point x="310" y="718" type="curve" smooth="yes"/>
			<point x="310" y="746"/>
			<point x="289" y="780"/>
			<point x="268" y="790" type="curve"/>
			<point x="247" y="773"/>
			<point x="227" y="758"/>
			<point x="190" y="735" type="curve" smooth="yes"/>
			<point x="97" y="678" type="line"/>
		</contour>
		<component base="dotlessi"/>
	</outline>
</glyph>
<glyph name="Imacron" format="2">
	<advance width="376"/>
	<unicode hex="012A"/>
	<anchor x="188" y="923" name="top"/>
	<outline>
		<contour>
			<point x="42" y="842" type="curve"/>
			<point x="292" y="842" type="line" smooth="yes"/>
			<point x="323" y="842"/>
			<point x="334" y="865"/>
			<point x="334" y="923" type="curve"/>
			<point x="84" y="923" type="line" smooth="yes"/>
			<point x="53" y="923"/>
			<point x="42" y="894"/>
		</contour>
		<component base="I"/>
	</outline>
</glyph>
<glyph name="dotlessi" format="2">
	<advance width="365"/>
	<unicode hex="0131"/>
	<anchor x="328" y="10" name="ogonek"/>
	<anchor x="183" y="0" name="bottom"/>
	<anchor x="166" y="540" name="top"/>
	<outline>
		<contour>
			<point x="48" y="0" type="line"/>
			<point x="327" y="0" type="line"/>
			<point x="327" y="57" type="line"/>
			<point x="260" y="57"/>
			<point x="233" y="73"/>
			<point x="233" y="125" type="curve" smooth="yes"/>
			<point x="234" y="502" type="line" smooth="yes"/>
			<point x="234" y="534"/>
			<point x="215" y="545"/>
			<point x="187" y="546" type="curve"/>
			<point x="143" y="545"/>
			<point x="92" y="532"/>
			<point x="38" y="518" type="curve"/>
			<point x="38" y="465" type="line"/>
			<point x="165" y="465" type="line"/>
			<point x="132" y="504" type="line"/>
			<point x="132" y="59" type="line"/>
			<point x="48" y="59" type="line"/>
		</contour>
	</outline>
</glyph>
<glyph name="gravecomb" format="2">
	<advance width="0"/>
	<unicode hex="0300"/>
	<anchor x="-257" y="816" name="top"/>
	<anchor x="-283" y="540" name="_top"/>
	<outline>
		<contour>
			<point x="-375" y="677" type="curve" smooth="yes"/>
			<point x="-172" y="628" type="line"/>
			<point x="-152" y="678" type="line"/>
			<point x="-299" y="742" type="line" smooth="yes"/>
			<point x="-339" y="759"/>
			<point x="-372" y="783"/>
			<point x="-393" y="800" type="curve"/>
			<point x="-414" y="790"/>
			<point x="-435" y="756"/>
			<point x="-435" y="728" type="curve" smooth="yes"/>
			<point x="-435" y="706"/>
			<point x="-418" y="687"/>
		</contour>
	</outline>
</glyph>
<glyph name="acutecomb" format="2">
	<advance width="0"/>
	<unicode hex="0301"/>
	<anchor x="-292" y="816" name="top"/>
	<anchor x="-292" y="540" name="_top"/>
	<outline>
		<contour>
			<point x="-357" y="628" type="line"/>
			<point x="-154" y="677" type="line" smooth="yes"/>
			<point x="-111" y="687"/>
			<point x="-94" y="706"/>
			<point x="-94" y="728" type="curve" smooth="yes"/>
			<point x="-94" y="756"/>
			<point x="-115" y="790"/>
			<point x="-136" y="800" type="curve"/>
			<point x="-157" y="783"/>
			<point x="-190" y="759"/>
			<point x="-230" y="742" type="curve" smooth="yes"/>
			<point x="-377" y="678" type="line"/>
		</contour>
	</outline>
</glyph>
<glyph name="tildecomb" format="2">
	<advance width="0"/>
	<unicode hex="0303"/>
	<anchor x="-335" y="769" name="top"/>
	<anchor x="-335" y="540" name="_top"/>
	<outline>
		<contour>
			<point x="-248" y="647" type="curve" smooth="yes"/>
			<point x="-210" y="647"/>
			<point x="-173" y="693"/>
			<point x="-158" y="739" type="curve"/>
			<point x="-183" y="760" type="line"/>
			<point x="-195" y="747"/>
			<point x="-221" y="728"/>
			<point x="-231" y="726" type="curve"/>
			<point x="-301" y="736"/>
			<point x="-354" y="769"/>
			<point x="-416" y="769" type="curve" smooth="yes"/>
			<point x="-456" y="769"/>
			<point x="-490" y="725"/>
			<point x="-511" y="671" type="curve"/>
			<point x="-484" y="655" type="line"/>
			<point x="-471" y="670"/>
			<point x="-444" y="687"/>
			<point x="-433" y="690" type="curve"/>
			<point x="-363" y="681"/>
			<point x="-311" y="647"/>
		</contour>
	</outline>
</glyph>
<glyph name="uni0304" format="2">
	<advance width="0"/>
	<unicode hex="0304"/>
	<anchor x="-300" y="749" name="top"/>
	<anchor x="-300" y="540" name="_top"/>
	<outline>
		<contour>
			<point x="-466" y="661" type="curve"/>
			<point x="-176" y="661" type="line" smooth="yes"/>
			<point x="-145" y="661"/>
			<point x="-134" y="684"/>
			<point x="-134" y="742" type="curve"/>
			<point x="-424" y="742" type="line" smooth="yes"/>
			<point x="-455" y="742"/>
			<point x="-466" y="713"/>
		</contour>
	</outline>
</glyph>
<glyph name="uni0308" format="2">
	<advance width="0"/>
	<unicode hex="0308"/>
	<anchor x="-294" y="762" name="top"/>
	<anchor x="-294" y="540" name="_top"/>
	<outline>
		<contour>
			<point x="-189" y="639" type="curve" smooth="yes"/>
			<point x="-149" y="639"/>
			<point x="-130" y="657"/>
			<point x="-130" y="700" type="curve" smooth="yes"/>
			<point x="-130" y="744"/>
			<point x="-149" y="762"/>
			<point x="-189" y="762" type="curve" smooth="yes"/>
			<point x="-232" y="762"/>
			<point x="-250" y="744"/>
			<point x="-250" y="700" type="curve" smooth="yes"/>
			<point x="-250" y="657"/>
			<point x="-232" y="639"/>
		</contour>
		<contour>
			<point x="-397" y="639" type="curve" smooth="yes"/>
			<point x="-356" y="639"/>
			<point x="-338" y="657"/>
			<point x="-338" y="700" type="curve" smooth="yes"/>
			<point x="-338" y="744"/>
			<point x="-357" y="762"/>
			<point x="-397" y="762" type="curve" smooth="yes"/>
			<point x="-439" y="762"/>
			<point x="-458" y="744"/>
			<point x="-458" y="700" type="curve" smooth="yes"/>
			<point x="-458" y="657"/>
			<point x="-439" y="639"/>
		</contour>
	</outline>
</glyph>
<glyph name="uni0331" format="2">
	<advance width="0"/>
	<unicode hex="0331"/>
	<anchor x="-300" y="0" name="_bottom"/>
	<anchor x="-300" y="-195" name="bottom"/>
	<outline>
		<contour>
			<point x="-466" y="-195" type="curve"/>
			<point x="-176" y="-195" type="line" smooth="yes"/>
			<point x="-145" y="-195"/>
			<point x="-134" y="-172"/>
			<point x="-134" y="-114" type="curve"/>
			<point x="-424" y="-114" type="line" smooth="yes"/>
			<point x="-455" y="-114"/>
			<point x="-466" y="-143"/>
		</contour>
	</outline>
</glyph>
<glyph name="endash" format="2">
	<advance width="506"/>
	<unicode hex="2013"/>
	<outline>
		<contour>
			<point x="5" y="251" type="curve"/>
			<point x="466" y="251" type="line" smooth="yes"/>
			<point x="492" y="251"/>
			<point x="501" y="272"/>
			<point x="501" y="325" type="curve"/>
			<point x="40" y="325" type="line" smooth="yes"/>
			<point x="14" y="325"/>
			<point x="5" y="298"/>
		</contour>
	</outline>
</glyph>
<glyph name="emdash" format="2">
	<advance width="986"/>
	<unicode hex="2014"/>
	<outline>
		<contour>
			<point x="31" y="251" type="curve"/>
			<point x="920" y="251" type="line" smooth="yes"/>
			<point x="946" y="251"/>
			<point x="955" y="272"/>
			<point x="955" y="325" type="curve"/>
			<point x="66" y="325" type="line" smooth="yes"/>
			<point x="40" y="325"/>
			<point x="31" y="298"/>
		</contour>
	</outline>
</glyph>
<glyph name="guilsinglleft" format="2">
	<advance width="276"/>
	<unicode hex="2039"/>
	<outline>
		<contour>
			<point x="54" y="224" type="curve" smooth="yes"/>
			<point x="226" y="59" type="line"/>
			<point x="263" y="88" type="line"/>
			<point x="123" y="282" type="line"/>
			<point x="123" y="292" type="line"/>
			<point x="262" y="472" type="line"/>
			<point x="225" y="504" type="line"/>
			<point x="55" y="346" type="line" smooth="yes"/>
			<point x="35" y="326"/>
			<point x="19" y="309"/>
			<point x="19" y="287" type="curve" smooth="yes"/>
			<point x="19" y="263"/>
			<point x="31" y="247"/>
		</contour>
	</outline>
</glyph>
<glyph name="uniA78B" format="2">
	<advance width="274"/>
	<unicode hex="A78B"/>
	<outline>
		<contour>
			<point x="73" y="743" type="curve"/>
			<point x="102" y="287" type="line"/>
			<point x="184" y="287" type="line"/>
			<point x="218" y="616" type="line" smooth="yes"/>
			<point x="229" y="719"/>
			<point x="216" y="748"/>
			<point x="154" y="751" type="curve" smooth="yes"/>
			<point x="133" y="752"/>
			<point x="106" y="749"/>
		</contour>
	</outline>
</glyph>
<glyph name="uniA78C" format="2">
	<advance width="234"/>
	<unicode hex="A78C"/>
	<outline>
		<contour>
			<point x="52" y="307" type="line"/>
			<point x="117" y="307" type="line"/>
			<point x="167" y="605" type="line" smooth="yes"/>
			<point x="172" y="630"/>
			<point x="175" y="651"/>
			<point x="175" y="668" type="curve" smooth="yes"/>
			<point x="175" y="717"/>
			<point x="150" y="731"/>
			<point x="109" y="731" type="curve" smooth="yes"/>
			<point x="86" y="731"/>
			<point x="65" y="728"/>
			<point x="43" y="723" type="curve"/>
			<point x="52" y="536" type="line"/>
		</contour>
	</outline>
</glyph>
<glyph name="Adieresis.alt" format="2">
	<advance width="782"/>
	<outline>
		<contour>
			<point x="623" y="628" type="curve" smooth="yes"/>
			<point x="664" y="628"/>
			<point x="682" y="646"/>
			<point x="682" y="689" type="curve" smooth="yes"/>
			<point x="682" y="733"/>
			<point x="663" y="751"/>
			<point x="623" y="751" type="curve" smooth="yes"/>
			<point x="580" y="751"/>
			<point x="556" y="733"/>
			<point x="556" y="689" type="curve" smooth="yes"/>
			<point x="556" y="646"/>
			<point x="580" y="628"/>
		</contour>
		<contour>
			<point x="165" y="628" type="curve" smooth="yes"/>
			<point x="206" y="628"/>
			<point x="224" y="646"/>
			<point x="224" y="689" type="curve" smooth="yes"/>
			<point x="224" y="733"/>
			<point x="205" y="751"/>
			<point x="165" y="751" type="curve" smooth="yes"/>
			<point x="123" y="751"/>
			<point x="98" y="733"/>
			<point x="98" y="689" type="curve" smooth="yes"/>
			<point x="98" y="646"/>
			<point x="123" y="628"/>
		</contour>
		<component base="A"/>
	</outline>
</glyph>
<glyph name="J.alt" format="2">
	<advance width="410"/>
	<outline>
		<contour>
			<point x="367" y="734" type="line"/>
			<point x="12" y="734" type="line"/>
			<point x="12" y="678" type="line"/>
			<point x="59" y="678" type="line"/>
			<point x="133" y="678"/>
			<point x="163" y="661"/>
			<point x="163" y="603" type="curve" smooth="yes"/>
			<point x="162" y="73" type="line" smooth="yes"/>
			<point x="162" y="3"/>
			<point x="153" y="-63"/>
			<point x="142" y="-101" type="curve"/>
			<point x="87" y="-134"/>
			<point x="12" y="-138"/>
			<point x="-54" y="-130" type="curve"/>
			<point x="-56" y="-240" type="line"/>
			<point x="128" y="-248"/>
			<point x="274" y="-140"/>
			<point x="274" y="57" type="curve" smooth="yes"/>
			<point x="274" y="676" type="line"/>
			<point x="367" y="676" type="line"/>
		</contour>
	</outline>
</glyph>
<glyph name="Odieresis.alt" format="2">
	<advance width="824"/>
	<outline>
		<contour>
			<point x="790" y="630" type="curve" smooth="yes"/>
			<point x="831" y="630"/>
			<point x="849" y="648"/>
			<point x="849" y="691" type="curve" smooth="yes"/>
			<point x="849" y="735"/>
			<point x="830" y="753"/>
			<point x="790" y="753" type="curve" smooth="yes"/>
			<point x="747" y="753"/>
			<point x="723" y="735"/>
			<point x="723" y="691" type="curve" smooth="yes"/>
			<point x="723" y="648"/>
			<point x="747" y="630"/>
		</contour>
		<contour>
			<point x="42" y="630" type="curve" smooth="yes"/>
			<point x="83" y="630"/>
			<point x="101" y="648"/>
			<point x="101" y="691" type="curve" smooth="yes"/>
			<point x="101" y="735"/>
			<point x="82" y="753"/>
			<point x="42" y="753" type="curve" smooth="yes"/>
			<point x="0" y="753"/>
			<point x="-25" y="735"/>
			<point x="-25" y="691" type="curve" smooth="yes"/>
			<point x="-25" y="648"/>
			<point x="0" y="630"/>
		</contour>
		<component base="O" xOffset="10"/>
	</outline>
</glyph>
<glyph name="Q.alt" format="2">
	<advance width="798"/>
	<anchor x="397" y="0" name="bottom"/>
	<anchor x="715" y="10" name="ogonek"/>
	<anchor x="397" y="735" name="top"/>
	<anchor x="774" y="735" name="topright"/>
	<anchor x="20" y="735" name="topleft"/>
	<anchor x="397" y="368" name="center"/>
	<outline>
		<contour>
			<point x="612" y="-246" type="curve" smooth="yes"/>
			<point x="675" y="-246"/>
			<point x="735" y="-178"/>
			<point x="764" y="-90" type="curve"/>
			<point x="725" y="-66" type="line"/>
			<point x="708" y="-88"/>
			<point x="691" y="-109"/>
			<point x="666" y="-126" type="curve"/>
			<point x="540" y="-131"/>
			<point x="412" y="-119"/>
			<point x="270" y="-103" type="curve"/>
			<point x="289" y="-125" type="line"/>
			<point x="601" y="-62"/>
			<point x="751" y="122"/>
			<point x="751" y="378" type="curve" smooth="yes"/>
			<point x="751" y="615"/>
			<point x="637" y="751"/>
			<point x="400" y="751" type="curve" smooth="yes"/>
			<point x="158" y="751"/>
			<point x="43" y="580"/>
			<point x="43" y="356" type="curve" smooth="yes"/>
			<point x="43" y="135"/>
			<point x="161" y="-16"/>
			<point x="361" y="-16" type="curve" smooth="yes"/>
			<point x="404" y="-16"/>
			<point x="444" y="-6"/>
			<point x="497" y="15" type="curve"/>
			<point x="493" y="20" type="line"/>
			<point x="435" y="-22"/>
			<point x="338" y="-59"/>
			<point x="215" y="-85" type="curve"/>
			<point x="215" y="-136" type="line"/>
			<point x="467" y="-222"/>
			<point x="542" y="-246"/>
		</contour>
		<contour>
			<point x="394" y="74" type="curve" smooth="yes"/>
			<point x="237" y="74"/>
			<point x="161" y="177"/>
			<point x="161" y="358" type="curve" smooth="yes"/>
			<point x="161" y="470"/>
			<point x="190" y="574"/>
			<point x="221" y="622" type="curve"/>
			<point x="284" y="648"/>
			<point x="340" y="660"/>
			<point x="400" y="660" type="curve" smooth="yes"/>
			<point x="554" y="660"/>
			<point x="630" y="560"/>
			<point x="630" y="376" type="curve" smooth="yes"/>
			<point x="630" y="270"/>
			<point x="601" y="162"/>
			<point x="570" y="112" type="curve"/>
			<point x="508" y="86"/>
			<point x="453" y="74"/>
		</contour>
	</outline>
</glyph>
<glyph name="Udieresis.alt" format="2">
	<advance width="817"/>
	<outline>
		<contour>
			<point x="443" y="440" type="curve" smooth="yes"/>
			<point x="484" y="440"/>
			<point x="502" y="458"/>
			<point x="502" y="501" type="curve" smooth="yes"/>
			<point x="502" y="545"/>
			<point x="483" y="563"/>
			<point x="443" y="563" type="curve" smooth="yes"/>
			<point x="401" y="563"/>
			<point x="376" y="545"/>
			<point x="376" y="501" type="curve" smooth="yes"/>
			<point x="376" y="458"/>
			<point x="401" y="440"/>
		</contour>
		<contour>
			<point x="443" y="232" type="curve" smooth="yes"/>
			<point x="484" y="232"/>
			<point x="502" y="250"/>
			<point x="502" y="293" type="curve" smooth="yes"/>
			<point x="502" y="337"/>
			<point x="483" y="355"/>
			<point x="443" y="355" type="curve" smooth="yes"/>
			<point x="400" y="355"/>
			<point x="376" y="337"/>
			<point x="376" y="293" type="curve" smooth="yes"/>
			<point x="376" y="250"/>
			<point x="400" y="232"/>
		</contour>
		<component base="U"/>
	</outline>
</glyph>
<glyph name="acutecomb.case" format="2">
	<advance width="0"/>
	<anchor x="-343" y="970" name="top"/>
	<anchor x="-343" y="735" name="_top"/>
	<outline>
		<contour>
			<point x="-462" y="853" type="curve"/>
			<point x="-450" y="806" type="line"/>
			<point x="-251" y="828" type="line" smooth="yes"/>
			<point x="-184" y="837"/>
			<point x="-152" y="849"/>
			<point x="-152" y="899" type="curve" smooth="yes"/>
			<point x="-152" y="921"/>
			<point x="-167" y="945"/>
			<point x="-182" y="965" type="curve"/>
			<point x="-208" y="944"/>
			<point x="-309" y="905"/>
		</contour>
	</outline>
</glyph>
<glyph name="ampersand.alt" format="2">
	<advance width="723"/>
	<outline>
		<contour>
			<point x="343" y="-18" type="curve" smooth="yes"/>
			<point x="493" y="-18"/>
			<point x="670" y="81"/>
			<point x="679" y="306" type="curve"/>
			<point x="626" y="306" type="line"/>
			<point x="616" y="136"/>
			<point x="485" y="76"/>
			<point x="386" y="76" type="curve" smooth="yes"/>
			<point x="233" y="76"/>
			<point x="158" y="196"/>
			<point x="158" y="340" type="curve" smooth="yes"/>
			<point x="158" y="372"/>
			<point x="164" y="405"/>
			<point x="182" y="438" type="curve"/>
			<point x="210" y="458"/>
			<point x="244" y="468"/>
			<point x="277" y="468" type="curve" smooth="yes"/>
			<point x="343" y="468"/>
			<point x="384" y="433"/>
			<point x="392" y="358" type="curve"/>
			<point x="489" y="398" type="line"/>
			<point x="469" y="510"/>
			<point x="395" y="555"/>
			<point x="302" y="555" type="curve" smooth="yes"/>
			<point x="171" y="555"/>
			<point x="48" y="432"/>
			<point x="48" y="278" type="curve" smooth="yes"/>
			<point x="48" y="120"/>
			<point x="151" y="-18"/>
		</contour>
		<contour>
			<point x="168" y="188" type="line"/>
			<point x="515" y="344" type="line" smooth="yes"/>
			<point x="583" y="375"/>
			<point x="614" y="402"/>
			<point x="614" y="450" type="curve" smooth="yes"/>
			<point x="614" y="492"/>
			<point x="603" y="515"/>
			<point x="550" y="594" type="curve"/>
			<point x="510" y="574" type="line"/>
			<point x="530" y="518"/>
			<point x="540" y="478"/>
			<point x="540" y="465" type="curve" smooth="yes"/>
			<point x="540" y="440"/>
			<point x="520" y="424"/>
			<point x="487" y="407" type="curve" smooth="yes"/>
			<point x="152" y="239" type="line"/>
		</contour>
	</outline>
</glyph>
<glyph name="ampersand.alt2" format="2">
	<advance width="761"/>
	<outline>
		<contour>
			<point x="323" y="-16" type="curve" smooth="yes"/>
			<point x="426" y="-16"/>
			<point x="513" y="32"/>
			<point x="575" y="80" type="curve"/>
			<point x="575" y="205" type="line" smooth="yes"/>
			<point x="575" y="236"/>
			<point x="586" y="252"/>
			<point x="623" y="252" type="curve" smooth="yes"/>
			<point x="657" y="252" type="line"/>
			<point x="657" y="308" type="line"/>
			<point x="455" y="308" type="line"/>
			<point x="516" y="324"/>
			<point x="531" y="365"/>
			<point x="531" y="411" type="curve" smooth="yes"/>
			<point x="531" y="489"/>
			<point x="466" y="556"/>
			<point x="339" y="556" type="curve" smooth="yes"/>
			<point x="210" y="556"/>
			<point x="67" y="445"/>
			<point x="67" y="241" type="curve" smooth="yes"/>
			<point x="67" y="67"/>
			<point x="178" y="-16"/>
		</contour>
		<contour>
			<point x="351" y="69" type="curve" smooth="yes"/>
			<point x="222" y="70"/>
			<point x="176" y="133"/>
			<point x="176" y="278" type="curve" smooth="yes"/>
			<point x="176" y="353"/>
			<point x="187" y="403"/>
			<point x="209" y="445" type="curve"/>
			<point x="237" y="459"/>
			<point x="277" y="470"/>
			<point x="314" y="470" type="curve" smooth="yes"/>
			<point x="386" y="470"/>
			<point x="426" y="435"/>
			<point x="426" y="376" type="curve" smooth="yes"/>
			<point x="426" y="339"/>
			<point x="396" y="317"/>
			<point x="353" y="317" type="curve" smooth="yes"/>
			<point x="130" y="317" type="line"/>
			<point x="129" y="251" type="line"/>
			<point x="488" y="251" type="line"/>
			<point x="488" y="95" type="line"/>
			<point x="437" y="75"/>
			<point x="391" y="69"/>
		</contour>
	</outline>
</glyph>
<glyph name="ampersand.alt3" format="2">
	<advance width="639"/>
	<outline>
		<contour>
			<point x="308" y="-15" type="curve" smooth="yes"/>
			<point x="397" y="-15"/>
			<point x="475" y="22"/>
			<point x="552" y="71" type="curve"/>
			<point x="552" y="300" type="line" smooth="yes"/>
			<point x="552" y="331"/>
			<point x="563" y="347"/>
			<point x="600" y="347" type="curve" smooth="yes"/>
			<point x="634" y="347" type="line"/>
			<point x="634" y="403" type="line"/>
			<point x="331" y="403" type="line" smooth="yes"/>
			<point x="232" y="403"/>
			<point x="176" y="464"/>
			<point x="176" y="544" type="curve" smooth="yes"/>
			<point x="176" y="576"/>
			<point x="185" y="610"/>
			<point x="206" y="647" type="curve"/>
			<point x="237" y="659"/>
			<point x="279" y="667"/>
			<point x="319" y="667" type="curve" smooth="yes"/>
			<point x="406" y="667"/>
			<point x="462" y="630"/>
			<point x="470" y="531" type="curve"/>
			<point x="527" y="531" type="line"/>
			<point x="527" y="717" type="line"/>
			<point x="452" y="735"/>
			<point x="402" y="748"/>
			<point x="325" y="748" type="curve" smooth="yes"/>
			<point x="181" y="748"/>
			<point x="65" y="649"/>
			<point x="65" y="523" type="curve" smooth="yes"/>
			<point x="65" y="459"/>
			<point x="100" y="394"/>
			<point x="185" y="376" type="curve"/>
			<point x="107" y="358"/>
			<point x="43" y="303"/>
			<point x="43" y="202" type="curve" smooth="yes"/>
			<point x="43" y="43"/>
			<point x="163" y="-15"/>
		</contour>
		<contour>
			<point x="337" y="67" type="curve" smooth="yes"/>
			<point x="249" y="67"/>
			<point x="159" y="100"/>
			<point x="159" y="197" type="curve" smooth="yes"/>
			<point x="159" y="296"/>
			<point x="227" y="340"/>
			<point x="310" y="340" type="curve" smooth="yes"/>
			<point x="448" y="340" type="line"/>
			<point x="448" y="90" type="line"/>
			<point x="409" y="76"/>
			<point x="372" y="67"/>
		</contour>
	</outline>
</glyph>
<glyph name="eight.tosf" format="2">
	<advance width="640"/>
	<outline>
		<contour>
			<point x="309" y="-16" type="curve" smooth="yes"/>
			<point x="462" y="-16"/>
			<point x="574" y="70"/>
			<point x="574" y="218" type="curve" smooth="yes"/>
			<point x="574" y="307"/>
			<point x="535" y="372"/>
			<point x="435" y="403" type="curve"/>
			<point x="508" y="437"/>
			<point x="543" y="488"/>
			<point x="543" y="576" type="curve" smooth="yes"/>
			<point x="543" y="662"/>
			<point x="478" y="748"/>
			<point x="331" y="748" type="curve" smooth="yes"/>
			<point x="217" y="748"/>
			<point x="100" y="688"/>
			<point x="100" y="541" type="curve" smooth="yes"/>
			<point x="100" y="466"/>
			<point x="137" y="413"/>
			<point x="203" y="378" type="curve"/>
			<point x="117" y="350"/>
			<point x="60" y="285"/>
			<point x="60" y="181" type="curve" smooth="yes"/>
			<point x="60" y="69"/>
			<point x="145" y="-16"/>
		</contour>
		<contour>
			<point x="323" y="70" type="curve" smooth="yes"/>
			<point x="226" y="70"/>
			<point x="162" y="113"/>
			<point x="162" y="205" type="curve" smooth="yes"/>
			<point x="162" y="277"/>
			<point x="204" y="323"/>
			<point x="280" y="343" type="curve"/>
			<point x="427" y="304"/>
			<point x="476" y="275"/>
			<point x="476" y="203" type="curve" smooth="yes"/>
			<point x="476" y="158"/>
			<point x="465" y="133"/>
			<point x="448" y="102" type="curve"/>
			<point x="409" y="81"/>
			<point x="365" y="70"/>
		</contour>
		<contour>
			<point x="374" y="431" type="curve"/>
			<point x="265" y="459"/>
			<point x="197" y="476"/>
			<point x="197" y="563" type="curve" smooth="yes"/>
			<point x="197" y="604"/>
			<point x="206" y="630"/>
			<point x="220" y="653" type="curve"/>
			<point x="248" y="670"/>
			<point x="284" y="678"/>
			<point x="320" y="678" type="curve" smooth="yes"/>
			<point x="407" y="678"/>
			<point x="452" y="640"/>
			<point x="452" y="570" type="curve" smooth="yes"/>
			<point x="452" y="514"/>
			<point x="439" y="469"/>
		</contour>
	</outline>
</glyph>
<glyph name="five.tf" format="2">
	<advance width="640"/>
	<guideline x="40" y="357" angle="0"/>
	<outline>
		<contour>
			<point x="285" y="-15" type="curve" smooth="yes"/>
			<point x="432" y="-15"/>
			<point x="565" y="71"/>
			<point x="565" y="251" type="curve" smooth="yes"/>
			<point x="565" y="386"/>
			<point x="490" y="474"/>
			<point x="348" y="474" type="curve" smooth="yes"/>
			<point x="284" y="474"/>
			<point x="215" y="458"/>
			<point x="169" y="434" type="curve"/>
			<point x="187" y="645" type="line"/>
			<point x="458" y="638" type="line" smooth="yes"/>
			<point x="497" y="637"/>
			<point x="519" y="661"/>
			<point x="519" y="701" type="curve" smooth="yes"/>
			<point x="519" y="781" type="line"/>
			<point x="482" y="781" type="line"/>
			<point x="476" y="754"/>
			<point x="463" y="736"/>
			<point x="430" y="736" type="curve" smooth="yes"/>
			<point x="119" y="733" type="line"/>
			<point x="99" y="390" type="line"/>
			<point x="142" y="361" type="line"/>
			<point x="186" y="377"/>
			<point x="248" y="391"/>
			<point x="303" y="391" type="curve" smooth="yes"/>
			<point x="405" y="391"/>
			<point x="460" y="338"/>
			<point x="460" y="239" type="curve" smooth="yes"/>
			<point x="460" y="165"/>
			<point x="448" y="129"/>
			<point x="431" y="97" type="curve"/>
			<point x="391" y="78"/>
			<point x="343" y="64"/>
			<point x="298" y="64" type="curve" smooth="yes"/>
			<point x="196" y="64"/>
			<point x="140" y="107"/>
			<point x="129" y="220" type="curve"/>
			<point x="77" y="220" type="line"/>
			<point x="76" y="38" type="line"/>
			<point x="135" y="4"/>
			<point x="211" y="-15"/>
		</contour>
	</outline>
</glyph>
<glyph name="five.tosf" format="2">
	<advance width="640"/>
	<outline>
		<contour>
			<point x="254" y="-185" type="curve" smooth="yes"/>
			<point x="419" y="-185"/>
			<point x="549" y="-92"/>
			<point x="549" y="66" type="curve" smooth="yes"/>
			<point x="549" y="174"/>
			<point x="494" y="281"/>
			<point x="344" y="281" type="curve" smooth="yes"/>
			<point x="278" y="281"/>
			<point x="221" y="256"/>
			<point x="178" y="230" type="curve"/>
			<point x="185" y="197" type="line"/>
			<point x="212" y="500" type="line"/>
			<point x="171" y="446" type="line"/>
			<point x="504" y="438" type="line"/>
			<point x="504" y="541" type="line"/>
			<point x="140" y="538" type="line"/>
			<point x="120" y="194" type="line"/>
			<point x="162" y="165" type="line"/>
			<point x="192" y="178"/>
			<point x="244" y="195"/>
			<point x="307" y="195" type="curve" smooth="yes"/>
			<point x="402" y="195"/>
			<point x="440" y="131"/>
			<point x="440" y="42" type="curve" smooth="yes"/>
			<point x="440" y="-14"/>
			<point x="424" y="-53"/>
			<point x="402" y="-92" type="curve"/>
			<point x="447" y="-50" type="line"/>
			<point x="367" y="-93"/>
			<point x="293" y="-109"/>
			<point x="210" y="-109" type="curve" smooth="yes"/>
			<point x="177" y="-109"/>
			<point x="142" y="-106"/>
			<point x="104" y="-102" type="curve"/>
			<point x="91" y="-165" type="line"/>
			<point x="147" y="-179"/>
			<point x="202" y="-185"/>
		</contour>
	</outline>
</glyph>
<glyph name="four.tf" format="2">
	<advance width="640"/>
	<outline>
		<contour>
			<point x="266" y="0" type="line"/>
			<point x="575" y="0" type="line"/>
			<point x="575" y="57" type="line"/>
			<point x="498" y="57"/>
			<point x="471" y="73"/>
			<point x="471" y="125" type="curve" smooth="yes"/>
			<point x="471" y="735" type="line"/>
			<point x="396" y="735" type="line"/>
			<point x="32" y="250" type="line"/>
			<point x="32" y="188" type="line"/>
			<point x="585" y="188" type="line"/>
			<point x="585" y="289" type="line"/>
			<point x="400" y="271" type="line"/>
			<point x="80" y="271" type="line"/>
			<point x="99" y="225" type="line"/>
			<point x="439" y="684" type="line"/>
			<point x="374" y="692" type="line"/>
			<point x="370" y="59" type="line"/>
			<point x="266" y="59" type="line"/>
		</contour>
	</outline>
</glyph>
<glyph name="four.tosf" format="2">
	<advance width="640"/>
	<outline>
		<contour>
			<point x="266" y="-187" type="line"/>
			<point x="575" y="-187" type="line"/>
			<point x="575" y="-130" type="line"/>
			<point x="498" y="-130"/>
			<point x="471" y="-114"/>
			<point x="471" y="-62" type="curve" smooth="yes"/>
			<point x="471" y="540" type="line"/>
			<point x="389" y="540" type="line"/>
			<point x="32" y="70" type="line"/>
			<point x="32" y="8" type="line"/>
			<point x="585" y="8" type="line"/>
			<point x="585" y="114" type="line"/>
			<point x="380" y="95" type="line"/>
			<point x="80" y="95" type="line"/>
			<point x="99" y="45" type="line"/>
			<point x="439" y="489" type="line"/>
			<point x="374" y="497" type="line"/>
			<point x="370" y="-128" type="line"/>
			<point x="266" y="-128" type="line"/>
		</contour>
	</outline>
</glyph>
<glyph name="gravecomb.case" format="2">
	<advance width="0"/>
	<anchor x="-353" y="970" name="top"/>
	<anchor x="-349" y="735" name="_top"/>
	<outline>
		<contour>
			<point x="-425" y="828" type="curve" smooth="yes"/>
			<point x="-226" y="806" type="line"/>
			<point x="-214" y="853" type="line"/>
			<point x="-367" y="905"/>
			<point x="-468" y="944"/>
			<point x="-494" y="965" type="curve"/>
			<point x="-509" y="945"/>
			<point x="-524" y="921"/>
			<point x="-524" y="899" type="curve" smooth="yes"/>
			<point x="-524" y="849"/>
			<point x="-492" y="835"/>
		</contour>
	</outline>
</glyph>
<glyph name="nine.tf" format="2">
	<advance width="640"/>
	<outline>
		<contour>
			<point x="139" y="37" type="curve"/>
			<point x="139" y="-13" type="line"/>
			<point x="467" y="-15"/>
			<point x="566" y="186"/>
			<point x="566" y="457" type="curve" smooth="yes"/>
			<point x="566" y="631"/>
			<point x="495" y="751"/>
			<point x="320" y="751" type="curve" smooth="yes"/>
			<point x="163" y="751"/>
			<point x="73" y="626"/>
			<point x="73" y="476" type="curve" smooth="yes"/>
			<point x="73" y="341"/>
			<point x="151" y="257"/>
			<point x="300" y="257" type="curve" smooth="yes"/>
			<point x="366" y="257"/>
			<point x="415" y="278"/>
			<point x="461" y="317" type="curve"/>
			<point x="457" y="365" type="line"/>
			<point x="420" y="343"/>
			<point x="382" y="334"/>
			<point x="326" y="334" type="curve" smooth="yes"/>
			<point x="225" y="334"/>
			<point x="183" y="407"/>
			<point x="183" y="501" type="curve" smooth="yes"/>
			<point x="183" y="543"/>
			<point x="191" y="590"/>
			<point x="206" y="636" type="curve"/>
			<point x="248" y="657"/>
			<point x="294" y="663"/>
			<point x="327" y="663" type="curve" smooth="yes"/>
			<point x="414" y="663"/>
			<point x="456" y="594"/>
			<point x="456" y="477" type="curve" smooth="yes"/>
			<point x="456" y="197"/>
			<point x="414" y="51"/>
		</contour>
	</outline>
</glyph>
<glyph name="nine.tosf" format="2">
	<advance width="640"/>
	<outline>
		<contour>
			<point x="129" y="-133" type="curve"/>
			<point x="135" y="-187" type="line"/>
			<point x="409" y="-187"/>
			<point x="579" y="0"/>
			<point x="579" y="253" type="curve" smooth="yes"/>
			<point x="579" y="433"/>
			<point x="507" y="557"/>
			<point x="332" y="557" type="curve" smooth="yes"/>
			<point x="152" y="557"/>
			<point x="61" y="428"/>
			<point x="61" y="262" type="curve" smooth="yes"/>
			<point x="61" y="141"/>
			<point x="129" y="57"/>
			<point x="265" y="57" type="curve" smooth="yes"/>
			<point x="337" y="57"/>
			<point x="407" y="84"/>
			<point x="473" y="126" type="curve"/>
			<point x="469" y="174" type="line"/>
			<point x="427" y="156"/>
			<point x="375" y="143"/>
			<point x="326" y="143" type="curve" smooth="yes"/>
			<point x="210" y="143"/>
			<point x="165" y="204"/>
			<point x="165" y="287" type="curve" smooth="yes"/>
			<point x="165" y="350"/>
			<point x="176" y="402"/>
			<point x="198" y="458" type="curve"/>
			<point x="235" y="475"/>
			<point x="276" y="485"/>
			<point x="314" y="485" type="curve" smooth="yes"/>
			<point x="437" y="485"/>
			<point x="470" y="388"/>
			<point x="470" y="262" type="curve" smooth="yes"/>
			<point x="470" y="36"/>
			<point x="362" y="-124"/>
		</contour>
	</outline>
</glyph>
<glyph name="ntilde.alt" format="2">
	<advance width="727"/>
	<anchor x="365" y="769" name="top"/>
	<outline>
		<contour>
			<point x="197" y="621" type="curve"/>
			<point x="229" y="621" type="line"/>
			<point x="237" y="637"/>
			<point x="257" y="657"/>
			<point x="267" y="662" type="curve"/>
			<point x="289" y="666"/>
			<point x="310" y="667"/>
			<point x="331" y="667" type="curve" smooth="yes"/>
			<point x="432" y="667" type="line" smooth="yes"/>
			<point x="492" y="667"/>
			<point x="533" y="693"/>
			<point x="535" y="799" type="curve"/>
			<point x="505" y="812" type="line"/>
			<point x="497" y="796"/>
			<point x="478" y="770"/>
			<point x="469" y="765" type="curve"/>
			<point x="445" y="761"/>
			<point x="422" y="761"/>
			<point x="401" y="761" type="curve" smooth="yes"/>
			<point x="308" y="761" type="line" smooth="yes"/>
			<point x="240" y="761"/>
			<point x="205" y="737"/>
		</contour>
		<component base="n"/>
	</outline>
</glyph>
<glyph name="one.lf" format="2">
	<advance width="640"/>
	<outline>
		<contour>
			<point x="115" y="0" type="line"/>
			<point x="528" y="0" type="line"/>
			<point x="528" y="57" type="line"/>
			<point x="478" y="57" type="line"/>
			<point x="411" y="57"/>
			<point x="385" y="74"/>
			<point x="385" y="130" type="curve" smooth="yes"/>
			<point x="385" y="430" type="line"/>
			<point x="389" y="692" type="line" smooth="yes"/>
			<point x="390" y="721"/>
			<point x="370" y="737"/>
			<point x="342" y="736" type="curve" smooth="yes"/>
			<point x="310" y="735"/>
			<point x="256" y="714"/>
			<point x="105" y="643" type="curve"/>
			<point x="123" y="600" type="line"/>
			<point x="307" y="647" type="line"/>
			<point x="281" y="689" type="line"/>
			<point x="281" y="59" type="line"/>
			<point x="115" y="59" type="line"/>
		</contour>
	</outline>
</glyph>
<glyph name="one.tosf" format="2">
	<advance width="640"/>
	<outline>
		<contour>
			<point x="125" y="0" type="line"/>
			<point x="508" y="0" type="line"/>
			<point x="508" y="57" type="line"/>
			<point x="478" y="57" type="line"/>
			<point x="411" y="57"/>
			<point x="384" y="74"/>
			<point x="384" y="130" type="curve" smooth="yes"/>
			<point x="385" y="370" type="line"/>
			<point x="389" y="512" type="line" smooth="yes"/>
			<point x="390" y="541"/>
			<point x="370" y="557"/>
			<point x="342" y="556" type="curve" smooth="yes"/>
			<point x="311" y="555"/>
			<point x="258" y="532"/>
			<point x="114" y="463" type="curve"/>
			<point x="130" y="420" type="line"/>
			<point x="314" y="457" type="line"/>
			<point x="281" y="509" type="line"/>
			<point x="281" y="59" type="line"/>
			<point x="125" y="59" type="line"/>
		</contour>
	</outline>
</glyph>
<glyph name="seven.tf" format="2">
	<advance width="640"/>
	<outline>
		<contour>
			<point x="151" y="0" type="line"/>
			<point x="278" y="0" type="line"/>
			<point x="561" y="698" type="line"/>
			<point x="536" y="735" type="line"/>
			<point x="98" y="735" type="line"/>
			<point x="78" y="503" type="line"/>
			<point x="143" y="500" type="line"/>
			<point x="168" y="635" type="line"/>
			<point x="511" y="654" type="line"/>
			<point x="484" y="681" type="line"/>
		</contour>
	</outline>
</glyph>
<glyph name="seven.tosf" format="2">
	<advance width="640"/>
	<outline>
		<contour>
			<point x="193" y="-186" type="curve" smooth="yes"/>
			<point x="210" y="-186"/>
			<point x="227" y="-185"/>
			<point x="244" y="-182" type="curve"/>
			<point x="570" y="472" type="line"/>
			<point x="570" y="546" type="line"/>
			<point x="79" y="546" type="line"/>
			<point x="73" y="339" type="line"/>
			<point x="130" y="339" type="line"/>
			<point x="152" y="453" type="line"/>
			<point x="537" y="453" type="line"/>
			<point x="510" y="491" type="line"/>
			<point x="167" y="-80" type="line" smooth="yes"/>
			<point x="150" y="-108"/>
			<point x="142" y="-131"/>
			<point x="142" y="-148" type="curve" smooth="yes"/>
			<point x="142" y="-173"/>
			<point x="159" y="-186"/>
		</contour>
	</outline>
</glyph>
<glyph name="six.lf" format="2">
	<advance width="640"/>
	<outline>
		<contour>
			<point x="313" y="-14" type="curve" smooth="yes"/>
			<point x="493" y="-14"/>
			<point x="584" y="115"/>
			<point x="584" y="281" type="curve" smooth="yes"/>
			<point x="584" y="408"/>
			<point x="516" y="496"/>
			<point x="380" y="496" type="curve" smooth="yes"/>
			<point x="308" y="496"/>
			<point x="238" y="469"/>
			<point x="172" y="427" type="curve"/>
			<point x="176" y="379" type="line"/>
			<point x="218" y="397"/>
			<point x="270" y="410"/>
			<point x="319" y="410" type="curve" smooth="yes"/>
			<point x="435" y="410"/>
			<point x="480" y="345"/>
			<point x="480" y="256" type="curve" smooth="yes"/>
			<point x="480" y="196"/>
			<point x="469" y="149"/>
			<point x="447" y="97" type="curve"/>
			<point x="401" y="76"/>
			<point x="352" y="68"/>
			<point x="316" y="68" type="curve" smooth="yes"/>
			<point x="212" y="68"/>
			<point x="175" y="161"/>
			<point x="175" y="281" type="curve" smooth="yes"/>
			<point x="175" y="518"/>
			<point x="283" y="687"/>
			<point x="516" y="696" type="curve"/>
			<point x="510" y="750" type="line"/>
			<point x="236" y="750"/>
			<point x="66" y="555"/>
			<point x="66" y="290" type="curve" smooth="yes"/>
			<point x="66" y="110"/>
			<point x="138" y="-14"/>
		</contour>
	</outline>
</glyph>
<glyph name="three.lf" format="2">
	<advance width="640"/>
	<outline>
		<contour>
			<point x="285" y="-15" type="curve" smooth="yes"/>
			<point x="432" y="-15"/>
			<point x="563" y="71"/>
			<point x="563" y="221" type="curve" smooth="yes"/>
			<point x="563" y="333"/>
			<point x="501" y="407"/>
			<point x="382" y="407" type="curve"/>
			<point x="482" y="434"/>
			<point x="531" y="491"/>
			<point x="531" y="566" type="curve" smooth="yes"/>
			<point x="531" y="687"/>
			<point x="460" y="751"/>
			<point x="318" y="751" type="curve" smooth="yes"/>
			<point x="242" y="751"/>
			<point x="147" y="730"/>
			<point x="80" y="694" type="curve" smooth="yes"/>
			<point x="80" y="694"/>
			<point x="80" y="694"/>
			<point x="80" y="694" type="curve"/>
			<point x="80" y="504" type="line"/>
			<point x="144" y="504" type="line"/>
			<point x="172" y="657" type="line"/>
			<point x="202" y="674"/>
			<point x="244" y="685"/>
			<point x="293" y="685" type="curve" smooth="yes"/>
			<point x="383" y="685"/>
			<point x="420" y="641"/>
			<point x="420" y="560" type="curve" smooth="yes"/>
			<point x="420" y="474"/>
			<point x="358" y="426"/>
			<point x="245" y="426" type="curve" smooth="yes"/>
			<point x="203" y="426" type="line"/>
			<point x="203" y="358" type="line"/>
			<point x="354" y="358"/>
			<point x="456" y="348"/>
			<point x="456" y="209" type="curve" smooth="yes"/>
			<point x="456" y="165"/>
			<point x="448" y="129"/>
			<point x="431" y="97" type="curve"/>
			<point x="391" y="78"/>
			<point x="343" y="64"/>
			<point x="298" y="64" type="curve" smooth="yes"/>
			<point x="196" y="64"/>
			<point x="140" y="107"/>
			<point x="129" y="220" type="curve"/>
			<point x="77" y="220" type="line"/>
			<point x="76" y="38" type="line"/>
			<point x="135" y="4"/>
			<point x="211" y="-15"/>
		</contour>
	</outline>
</glyph>
<glyph name="three.tosf" format="2">
	<advance width="640"/>
	<outline>
		<contour>
			<point x="247" y="-185" type="curve" smooth="yes"/>
			<point x="412" y="-185"/>
			<point x="542" y="-92"/>
			<point x="542" y="66" type="curve" smooth="yes"/>
			<point x="542" y="159"/>
			<point x="473" y="233"/>
			<point x="322" y="221" type="curve"/>
			<point x="320" y="199" type="line"/>
			<point x="457" y="239"/>
			<point x="507" y="324"/>
			<point x="507" y="396" type="curve" smooth="yes"/>
			<point x="507" y="457"/>
			<point x="471" y="556"/>
			<point x="321" y="556" type="curve" smooth="yes"/>
			<point x="224" y="556"/>
			<point x="137" y="523"/>
			<point x="94" y="499" type="curve"/>
			<point x="95" y="339" type="line"/>
			<point x="148" y="339" type="line"/>
			<point x="175" y="465" type="line"/>
			<point x="204" y="478"/>
			<point x="238" y="486"/>
			<point x="286" y="486" type="curve" smooth="yes"/>
			<point x="357" y="486"/>
			<point x="401" y="449"/>
			<point x="401" y="385" type="curve" smooth="yes"/>
			<point x="401" y="306"/>
			<point x="371" y="261"/>
			<point x="196" y="215" type="curve"/>
			<point x="196" y="153" type="line"/>
			<point x="235" y="160"/>
			<point x="270" y="164"/>
			<point x="302" y="164" type="curve" smooth="yes"/>
			<point x="384" y="164"/>
			<point x="433" y="119"/>
			<point x="433" y="31" type="curve" smooth="yes"/>
			<point x="433" y="-15"/>
			<point x="418" y="-53"/>
			<point x="396" y="-92" type="curve"/>
			<point x="441" y="-50" type="line"/>
			<point x="361" y="-93"/>
			<point x="287" y="-109"/>
			<point x="204" y="-109" type="curve" smooth="yes"/>
			<point x="171" y="-109"/>
			<point x="136" y="-106"/>
			<point x="98" y="-102" type="curve"/>
			<point x="85" y="-165" type="line"/>
			<point x="141" y="-179"/>
			<point x="195" y="-185"/>
		</contour>
	</outline>
</glyph>
<glyph name="tildecomb.case" format="2">
	<advance width="0"/>
	<anchor x="-340" y="969" name="top"/>
	<anchor x="-340" y="715" name="_top"/>
	<outline>
		<contour>
			<point x="-229" y="812" type="curve" smooth="yes"/>
			<point x="-187" y="812"/>
			<point x="-146" y="862"/>
			<point x="-130" y="913" type="curve"/>
			<point x="-157" y="936" type="line"/>
			<point x="-170" y="922"/>
			<point x="-199" y="901"/>
			<point x="-210" y="899" type="curve"/>
			<point x="-299" y="910"/>
			<point x="-368" y="946"/>
			<point x="-447" y="946" type="curve" smooth="yes"/>
			<point x="-491" y="946"/>
			<point x="-529" y="898"/>
			<point x="-552" y="838" type="curve"/>
			<point x="-522" y="821" type="line"/>
			<point x="-508" y="837"/>
			<point x="-478" y="856"/>
			<point x="-466" y="859" type="curve"/>
			<point x="-377" y="849"/>
			<point x="-309" y="812"/>
		</contour>
	</outline>
</glyph>
<glyph name="two.tf" format="2">
	<advance width="640"/>
	<outline>
		<contour>
			<point x="64" y="87" type="curve"/>
			<point x="64" y="0" type="line"/>
			<point x="557" y="0" type="line"/>
			<point x="565" y="220" type="line"/>
			<point x="511" y="220" type="line"/>
			<point x="468" y="45" type="line"/>
			<point x="519" y="106" type="line"/>
			<point x="144" y="84" type="line"/>
			<point x="144" y="61" type="line"/>
			<point x="346" y="224"/>
			<point x="551" y="394"/>
			<point x="551" y="557" type="curve" smooth="yes"/>
			<point x="551" y="694"/>
			<point x="477" y="751"/>
			<point x="329" y="751" type="curve" smooth="yes"/>
			<point x="240" y="751"/>
			<point x="152" y="727"/>
			<point x="84" y="692" type="curve"/>
			<point x="84" y="503" type="line"/>
			<point x="149" y="503" type="line"/>
			<point x="183" y="682" type="line"/>
			<point x="154" y="645" type="line"/>
			<point x="192" y="669"/>
			<point x="251" y="684"/>
			<point x="318" y="684" type="curve" smooth="yes"/>
			<point x="398" y="684"/>
			<point x="439" y="632"/>
			<point x="439" y="552" type="curve" smooth="yes"/>
			<point x="439" y="410"/>
			<point x="208" y="206"/>
		</contour>
	</outline>
</glyph>
<glyph name="two.tosf" format="2">
	<advance width="640"/>
	<outline>
		<contour>
			<point x="109" y="88" type="curve"/>
			<point x="109" y="74" type="line"/>
			<point x="190" y="74" type="line"/>
			<point x="400" y="185"/>
			<point x="517" y="244"/>
			<point x="517" y="393" type="curve" smooth="yes"/>
			<point x="517" y="505"/>
			<point x="438" y="556"/>
			<point x="334" y="556" type="curve" smooth="yes"/>
			<point x="266" y="556"/>
			<point x="188" y="535"/>
			<point x="114" y="499" type="curve"/>
			<point x="115" y="338" type="line"/>
			<point x="169" y="338" type="line"/>
			<point x="194" y="466" type="line"/>
			<point x="227" y="477"/>
			<point x="266" y="485"/>
			<point x="302" y="485" type="curve" smooth="yes"/>
			<point x="384" y="485"/>
			<point x="413" y="444"/>
			<point x="413" y="371" type="curve" smooth="yes"/>
			<point x="413" y="266"/>
			<point x="318" y="209"/>
		</contour>
		<contour>
			<point x="109" y="0" type="line"/>
			<point x="561" y="0" type="line"/>
			<point x="561" y="107" type="line"/>
			<point x="109" y="81" type="line"/>
		</contour>
	</outline>
</glyph>
<glyph name="uni0304.case" format="2">
	<advance width="0"/>
	<anchor x="-280" y="923" name="top"/>
	<anchor x="-285" y="735" name="_top"/>
	<outline>
		<contour>
			<point x="-476" y="842" type="curve"/>
			<point x="-126" y="842" type="line" smooth="yes"/>
			<point x="-95" y="842"/>
			<point x="-84" y="865"/>
			<point x="-84" y="923" type="curve"/>
			<point x="-434" y="923" type="line" smooth="yes"/>
			<point x="-465" y="923"/>
			<point x="-476" y="894"/>
		</contour>
	</outline>
</glyph>
<glyph name="uni0308.case" format="2">
	<advance width="0"/>
	<anchor x="-377" y="933" name="top"/>
	<anchor x="-377" y="735" name="_top"/>
	<outline>
		<contour>
			<point x="-244" y="810" type="curve" smooth="yes"/>
			<point x="-203" y="810"/>
			<point x="-185" y="828"/>
			<point x="-185" y="871" type="curve" smooth="yes"/>
			<point x="-185" y="915"/>
			<point x="-204" y="933"/>
			<point x="-244" y="933" type="curve" smooth="yes"/>
			<point x="-287" y="933"/>
			<point x="-311" y="915"/>
			<point x="-311" y="871" type="curve" smooth="yes"/>
			<point x="-311" y="828"/>
			<point x="-287" y="810"/>
		</contour>
		<contour>
			<point x="-502" y="810" type="curve" smooth="yes"/>
			<point x="-461" y="810"/>
			<point x="-443" y="828"/>
			<point x="-443" y="871" type="curve" smooth="yes"/>
			<point x="-443" y="915"/>
			<point x="-462" y="933"/>
			<point x="-502" y="933" type="curve" smooth="yes"/>
			<point x="-544" y="933"/>
			<point x="-569" y="915"/>
			<point x="-569" y="871" type="curve" smooth="yes"/>
			<point x="-569" y="828"/>
			<point x="-544" y="810"/>
		</contour>
	</outline>
</glyph>
<glyph name="uni0331.case" format="2">
	<advance width="0"/>
	<anchor x="-300" y="0" name="_bottom"/>
	<anchor x="-300" y="-197" name="bottom"/>
	<outline>
		<contour>
			<point x="-496" y="-197" type="curve"/>
			<point x="-146" y="-197" type="line" smooth="yes"/>
			<point x="-115" y="-197"/>
			<point x="-104" y="-174"/>
			<point x="-104" y="-116" type="curve"/>
			<point x="-454" y="-116" type="line" smooth="yes"/>
			<point x="-485" y="-116"/>
			<point x="-496" y="-145"/>
		</contour>
	</outline>
</glyph>
<glyph name="zero.lf" format="2">
	<advance width="640"/>
	<outline>
		<contour>
			<point x="319" y="-16" type="curve" smooth="yes"/>
			<point x="551" y="-16"/>
			<point x="626" y="159"/>
			<point x="626" y="378" type="curve" smooth="yes"/>
			<point x="626" y="615"/>
			<point x="542" y="751"/>
			<point x="323" y="751" type="curve" smooth="yes"/>
			<point x="99" y="751"/>
			<point x="14" y="580"/>
			<point x="14" y="356" type="curve" smooth="yes"/>
			<point x="14" y="124"/>
			<point x="101" y="-16"/>
		</contour>
		<contour>
			<point x="317" y="64" type="curve" smooth="yes"/>
			<point x="173" y="64"/>
			<point x="125" y="171"/>
			<point x="125" y="358" type="curve" smooth="yes"/>
			<point x="125" y="474"/>
			<point x="155" y="582"/>
			<point x="177" y="634" type="curve"/>
			<point x="233" y="660"/>
			<point x="261" y="670"/>
			<point x="323" y="670" type="curve" smooth="yes"/>
			<point x="465" y="670"/>
			<point x="513" y="567"/>
			<point x="513" y="376" type="curve" smooth="yes"/>
			<point x="513" y="266"/>
			<point x="483" y="154"/>
			<point x="459" y="100" type="curve"/>
			<point x="405" y="76"/>
			<point x="379" y="64"/>
		</contour>
	</outline>
</glyph>
<glyph name="zero.lf.zero.001" format="2">
	<advance width="700"/>
	<outline>
		<contour>
			<point x="155" y="74" type="line"/>
			<point x="545" y="631" type="line"/>
			<point x="491" y="667" type="line"/>
			<point x="105" y="108" type="line"/>
		</contour>
		<component base="zero.lf"/>
	</outline>
</glyph>
<glyph name="zero.tosf" format="2">
	<advance width="640"/>
	<outline>
		<contour>
			<point x="319" y="-14" type="curve" smooth="yes"/>
			<point x="483" y="-14"/>
			<point x="600" y="91"/>
			<point x="600" y="270" type="curve" smooth="yes"/>
			<point x="600" y="439"/>
			<point x="504" y="555"/>
			<point x="323" y="555" type="curve" smooth="yes"/>
			<point x="160" y="555"/>
			<point x="40" y="450"/>
			<point x="40" y="270" type="curve" smooth="yes"/>
			<point x="40" y="102"/>
			<point x="138" y="-14"/>
		</contour>
		<contour>
			<point x="311" y="74" type="curve" smooth="yes"/>
			<point x="276" y="74"/>
			<point x="233" y="80"/>
			<point x="183" y="99" type="curve"/>
			<point x="153" y="139"/>
			<point x="141" y="198"/>
			<point x="141" y="271" type="curve" smooth="yes"/>
			<point x="141" y="414"/>
			<point x="210" y="468"/>
			<point x="327" y="468" type="curve" smooth="yes"/>
			<point x="363" y="468"/>
			<point x="405" y="462"/>
			<point x="455" y="444" type="curve"/>
			<point x="486" y="404"/>
			<point x="497" y="345"/>
			<point x="497" y="271" type="curve" smooth="yes"/>
			<point x="497" y="128"/>
			<point x="428" y="74"/>
		</contour>
	</outline>
</glyph>
<glyph name="zero.zero" format="2">
	<advance width="637"/>
	<outline>
		<contour>
			<point x="183" y="85" type="line"/>
			<point x="509" y="413" type="line"/>
			<point x="460" y="462" type="line"/>
			<point x="135" y="133" type="line"/>
		</contour>
		<component base="zero" xOffset="-1"/>
	</outline>
</glyph>
